<svg width="838" height="98" viewBox="0 0 838 98" fill="none" xmlns="http://www.w3.org/2000/svg">
<g filter="url(#filter0_d)">
<path d="M6.6172 67.2891C5.4922 67.2891 4.81251 67.1484 4.57814 66.8672C4.29689 66.6328 4.25001 66.1406 4.43751 65.3906C4.48439 65.1562 4.71876 64.1016 5.14064 62.2266C5.56251 60.3984 6.07814 58.1484 6.68751 55.4766C7.34376 52.8516 8.02345 49.9922 8.72657 46.8984C9.47657 43.8047 10.1797 40.8984 10.8359 38.1797C9.85157 38.2734 9.12501 38.2031 8.65626 37.9688C8.18751 37.6875 7.95314 37.3359 7.95314 36.9141C8.00001 36.4453 8.25782 35.9766 8.72657 35.5078C9.2422 35.0391 9.96876 34.6406 10.9063 34.3125C11.0938 34.2188 11.375 34.125 11.75 34.0312C11.9844 33.2344 12.1953 32.4141 12.3828 31.5703C12.5703 30.8672 12.7578 30.1172 12.9453 29.3203C13.1328 28.5234 13.3203 27.75 13.5078 27L18.4297 5.97656C18.7109 4.89844 19.1328 4.10156 19.6953 3.58594C20.3047 3.02344 21.4063 2.55469 23 2.17969C24.3125 1.85156 25.2266 1.73438 25.7422 1.82812C26.2578 1.875 26.4922 2.01562 26.4453 2.25C26.3047 2.76562 25.9531 4.00781 25.3906 5.97656C24.8281 7.94531 24.1484 10.3594 23.3516 13.2188C22.6016 16.0312 21.7813 19.1484 20.8906 22.5703C20 25.9453 19.1328 29.2969 18.2891 32.625C21.1016 32.2031 24.5234 31.8516 28.5547 31.5703C30.1016 31.3828 31.6016 31.2656 33.0547 31.2188C34.5547 31.1719 35.9844 31.1719 37.3438 31.2188C38 28.6875 38.6328 26.1562 39.2422 23.625C39.8984 21.0938 40.5078 18.75 41.0703 16.5938C41.6328 14.4375 42.125 12.5391 42.5469 10.8984C43.0156 9.21094 43.3672 7.96875 43.6016 7.17188C43.8828 6.28125 44.1406 5.55469 44.375 4.99219C44.6563 4.42969 44.9609 3.98438 45.2891 3.65625C45.6641 3.32812 46.0859 3.09375 46.5547 2.95312C47.0234 2.8125 47.5625 2.69531 48.1719 2.60156C48.5 2.60156 48.8984 2.57812 49.3672 2.53125C49.7422 2.53125 50.1875 2.53125 50.7031 2.53125C51.2188 2.48438 51.8047 2.50781 52.4609 2.60156C50.6797 7.38281 49.0156 12.2344 47.4688 17.1562C45.9688 22.0312 44.5625 26.7891 43.25 31.4297C44.0938 31.5234 44.8203 31.5938 45.4297 31.6406C46.0859 31.6875 46.6016 31.7578 46.9766 31.8516C48.1016 32.0391 48.8047 32.3438 49.0859 32.7656C49.4141 33.1875 49.3203 33.7969 48.8047 34.5938L47.9609 35.6484C47.6797 36.0234 47.3281 36.4688 46.9063 36.9844C46.4844 37.4531 45.9453 37.9922 45.2891 38.6016C44.9141 38.4609 44.5156 38.3203 44.0938 38.1797C43.7188 38.0391 43.3438 37.8984 42.9688 37.7578C42.5 37.6172 42.0547 37.4766 41.6328 37.3359C41.3047 38.4609 41 39.5625 40.7188 40.6406C40.4375 41.6719 40.1797 42.7266 39.9453 43.8047C39.3828 46.1016 38.8438 48.4688 38.3281 50.9062C37.9063 53.0156 37.4609 55.3359 36.9922 57.8672C36.5703 60.4453 36.2422 62.9766 36.0078 65.4609C35.6328 65.6484 35.2578 65.7656 34.8828 65.8125C34.5078 65.9062 34.1797 65.9766 33.8984 66.0234C33.5703 66.0703 33.2422 66.1172 32.9141 66.1641H32.5625C32.375 66.1641 32.1875 66.1641 32 66.1641C31.8125 66.1641 31.625 66.1172 31.4375 66.0234C31.2031 65.9766 30.9688 65.9062 30.7344 65.8125C30.5 65.7188 30.2656 65.625 30.0313 65.5312C29.8438 65.4844 29.6328 65.3906 29.3984 65.25C29.7734 63.7031 30.0547 62.25 30.2422 60.8906C30.4766 59.5312 30.6406 58.3359 30.7344 57.3047C30.875 56.0859 30.9688 55.0078 31.0156 54.0703C31.0625 52.8516 30.9219 51.5156 30.5938 50.0625C30.3125 48.6094 29.8438 47.1797 29.1875 45.7734C28.5781 44.3672 27.8047 43.0547 26.8672 41.8359C25.9766 40.6172 24.9453 39.5859 23.7734 38.7422C22.6016 37.9453 21.4766 37.4297 20.3984 37.1953C19.3672 36.9609 18.3125 36.8906 17.2344 36.9844C16.9063 38.3906 16.6016 39.75 16.3203 41.0625C16.0391 42.375 15.8047 43.6406 15.6172 44.8594C15.1016 47.5781 14.6094 50.2266 14.1406 52.8047C13.7656 55.0078 13.3672 57.2812 12.9453 59.625C12.5703 62.0156 12.2891 64.0547 12.1016 65.7422C11.3516 66.1172 10.6484 66.3984 9.9922 66.5859C9.33595 66.8203 8.75001 66.9844 8.23439 67.0781C7.67189 67.2188 7.13282 67.2891 6.6172 67.2891ZM34.4609 36.0703C32.8203 35.8828 31.25 35.7891 29.75 35.7891C28.2969 35.7422 27.0078 35.7188 25.8828 35.7188C26.8203 36.2344 27.6406 36.9141 28.3438 37.7578C29.0938 38.6016 29.8672 39.5625 30.6641 40.6406C31.4141 41.625 32.0234 42.7031 32.4922 43.875C32.9609 45.0469 33.3594 46.1719 33.6875 47.25C34.0625 45.2812 34.4609 43.3594 34.8828 41.4844C35.3047 39.6094 35.7031 37.8516 36.0781 36.2109C35.7969 36.1641 35.5156 36.1406 35.2344 36.1406C35 36.0938 34.7422 36.0703 34.4609 36.0703Z" fill="url(#paint0_linear)"/>
<path d="M83.6094 39.375C82.2031 41.4375 80.6094 43.4531 78.8281 45.4219C77.0469 47.3438 75.1485 49.0781 73.1328 50.625C71.1641 52.125 69.125 53.3438 67.0156 54.2812C64.9531 55.2188 62.9375 55.6875 60.9688 55.6875C59.9375 55.6875 58.8125 55.4297 57.5938 54.9141C56.4219 54.4453 55.3438 53.6953 54.3594 52.6641C53.375 51.6328 52.5781 50.2969 51.9688 48.6562C51.4063 47.0156 51.2422 45.0234 51.4766 42.6797C51.6641 40.7578 52.25 38.7422 53.2344 36.6328C54.2656 34.4766 55.5078 32.5078 56.9609 30.7266C58.4609 28.9453 60.125 27.4688 61.9531 26.2969C63.8281 25.125 65.7031 24.5391 67.5781 24.5391C69.3594 24.5391 70.6485 24.9844 71.4453 25.875C72.2422 26.7656 72.5938 27.8672 72.5 29.1797C72.3594 30.6328 71.9375 31.9688 71.2344 33.1875C70.5781 34.4062 69.7813 35.5078 68.8438 36.4922C67.9063 37.4766 66.8984 38.3672 65.8203 39.1641C64.7891 39.9609 63.8047 40.6875 62.8672 41.3438C61.8359 42.0469 60.8516 42.7266 59.9141 43.3828C58.9766 43.9922 58.1563 44.5547 57.4531 45.0703C57.5 46.2422 57.7109 47.2266 58.0859 48.0234C58.4609 48.8203 58.9297 49.4766 59.4922 49.9922C60.0547 50.4609 60.6875 50.8125 61.3906 51.0469C62.1406 51.2344 62.8906 51.3281 63.6406 51.3281C65.2344 51.3281 66.8985 50.8359 68.6328 49.8516C70.3672 48.8203 72.0547 47.6016 73.6953 46.1953C75.3828 44.7422 76.9297 43.2422 78.336 41.6953C79.7891 40.1484 80.9844 38.8125 81.9219 37.6875C82.25 37.3125 82.5781 37.1016 82.9063 37.0547C83.2813 36.9609 83.5625 37.0078 83.75 37.1953C83.9844 37.3359 84.1016 37.6172 84.1016 38.0391C84.1016 38.4141 83.9375 38.8594 83.6094 39.375ZM65.6094 28.5469C65.0469 28.5469 64.3672 28.8281 63.5703 29.3906C62.8203 29.9531 62.0703 30.7734 61.3203 31.8516C60.5703 32.8828 59.8672 34.1719 59.2109 35.7188C58.5547 37.2188 58.0625 38.9531 57.7344 40.9219C58.2969 40.5 58.9063 40.0781 59.5625 39.6562C60.2188 39.1875 60.875 38.6953 61.5313 38.1797C63.5469 36.6328 64.9531 35.2734 65.75 34.1016C66.5469 32.9297 66.9922 31.9219 67.0859 31.0781C67.1797 30.1875 67.0859 29.5547 66.8047 29.1797C66.5234 28.7578 66.125 28.5469 65.6094 28.5469Z" fill="url(#paint1_linear)"/>
<path d="M97.0391 28.125C97.6485 27.6562 98.2344 27.3047 98.7969 27.0703C99.4063 26.7891 99.9453 26.6016 100.414 26.5078C100.93 26.3672 101.445 26.3203 101.961 26.3672C103.227 26.4609 104 26.8594 104.281 27.5625C104.609 28.2656 104.656 29.3906 104.422 30.9375C104.281 31.7344 104 32.7422 103.578 33.9609C103.156 35.1797 102.664 36.6797 102.102 38.4609C101.539 40.1953 100.93 42.1875 100.273 44.4375C99.6641 46.6875 99.0781 49.2188 98.5156 52.0312C97.9531 54.3281 97.3438 56.9766 96.6875 59.9766C96.125 62.6016 95.4453 65.7656 94.6485 69.4688C93.8985 73.1719 93.0781 77.4141 92.1875 82.1953C91.9531 83.3672 91.4375 84.0469 90.6406 84.2344C89.8906 84.4219 89.0938 84.3281 88.25 83.9531C87.9219 83.7656 87.6172 83.5547 87.336 83.3203C87.1016 83.0859 86.8438 82.8047 86.5625 82.4766C86.2813 82.1953 86.0469 81.7969 85.8594 81.2812C86.9375 77.3438 87.875 73.7578 88.6719 70.5234C89.5156 67.2891 90.2656 64.4766 90.9219 62.0859C91.625 59.3203 92.2813 56.8359 92.8906 54.6328C93.125 53.6484 93.336 52.6875 93.5235 51.75C93.7578 50.7656 93.9922 49.8047 94.2266 48.8672C93.6172 49.8516 92.961 50.7891 92.2578 51.6797C91.5547 52.5703 90.7813 53.3438 89.9375 54C89.0938 54.6562 88.1797 55.1484 87.1953 55.4766C86.2578 55.8516 85.2735 55.9688 84.2422 55.8281C81.711 55.5 79.9063 54.5625 78.8281 53.0156C77.7969 51.4688 77.3516 49.4531 77.4922 46.9688C77.5391 45.9844 77.6797 44.9062 77.9141 43.7344C78.1485 42.5625 78.4063 41.4375 78.6875 40.3594C78.9688 39.2812 79.2266 38.3203 79.461 37.4766C79.7422 36.5859 79.9531 35.9531 80.0938 35.5781C80.6563 33.7969 81.0547 32.2734 81.2891 31.0078C81.5703 29.7422 81.3828 28.6875 80.7266 27.8438C81.3828 27.4219 81.9922 27.1406 82.5547 27C83.1641 26.8125 83.7031 26.6719 84.1719 26.5781C84.6875 26.5312 85.2031 26.5312 85.7188 26.5781C86.9844 26.7656 87.711 27.2344 87.8985 27.9844C88.1328 28.7344 88.0625 29.8594 87.6875 31.3594C87.5 32.1562 87.1953 33.1875 86.7735 34.4531C86.3516 35.6719 85.9063 36.9375 85.4375 38.25C84.9688 39.5625 84.5469 40.7812 84.1719 41.9062C83.7969 42.9844 83.586 43.7578 83.5391 44.2266C83.1172 46.3359 83.0938 47.9766 83.4688 49.1484C83.8438 50.2734 84.6641 50.8359 85.9297 50.8359C86.5391 50.8359 87.2188 50.5781 87.9688 50.0625C88.7188 49.5 89.4688 48.7734 90.2188 47.8828C91.0156 46.9922 91.7891 45.9844 92.5391 44.8594C93.2891 43.6875 93.9688 42.5156 94.5781 41.3438C95.2344 40.1719 95.7969 39.0234 96.2656 37.8984C96.7813 36.7734 97.1563 35.7656 97.3906 34.875C97.7188 33.1406 97.9297 31.7812 98.0235 30.7969C98.1172 29.8125 97.7891 28.9219 97.0391 28.125Z" fill="url(#paint2_linear)"/>
<path d="M109.203 48.6562C110.422 48.4688 111.383 48.5859 112.086 49.0078C112.836 49.3828 113.164 50.1094 113.07 51.1875C113.023 51.7969 112.766 52.3828 112.297 52.9453C111.875 53.4609 111.336 53.9297 110.68 54.3516C110.07 54.7734 109.414 55.1016 108.711 55.3359C108.008 55.5703 107.398 55.6875 106.883 55.6875C105.945 55.6875 105.125 55.4766 104.422 55.0547C103.672 54.6328 103.344 53.9531 103.438 53.0156C103.484 52.4062 103.695 51.8672 104.07 51.3984C104.398 50.8828 104.844 50.4375 105.406 50.0625C105.922 49.6875 106.508 49.3828 107.164 49.1484C107.867 48.9141 108.547 48.75 109.203 48.6562Z" fill="url(#paint3_linear)"/>
<path d="M124.602 48.6562C125.82 48.4688 126.781 48.5859 127.484 49.0078C128.234 49.3828 128.563 50.1094 128.469 51.1875C128.422 51.7969 128.164 52.3828 127.695 52.9453C127.273 53.4609 126.734 53.9297 126.078 54.3516C125.469 54.7734 124.813 55.1016 124.109 55.3359C123.406 55.5703 122.797 55.6875 122.281 55.6875C121.344 55.6875 120.523 55.4766 119.82 55.0547C119.07 54.6328 118.742 53.9531 118.836 53.0156C118.883 52.4062 119.094 51.8672 119.469 51.3984C119.797 50.8828 120.242 50.4375 120.805 50.0625C121.32 49.6875 121.906 49.3828 122.563 49.1484C123.266 48.9141 123.945 48.75 124.602 48.6562Z" fill="url(#paint4_linear)"/>
<path d="M140 48.6562C141.219 48.4688 142.18 48.5859 142.883 49.0078C143.633 49.3828 143.961 50.1094 143.867 51.1875C143.82 51.7969 143.563 52.3828 143.094 52.9453C142.672 53.4609 142.133 53.9297 141.477 54.3516C140.867 54.7734 140.211 55.1016 139.508 55.3359C138.805 55.5703 138.195 55.6875 137.68 55.6875C136.742 55.6875 135.922 55.4766 135.219 55.0547C134.469 54.6328 134.141 53.9531 134.234 53.0156C134.281 52.4062 134.492 51.8672 134.867 51.3984C135.195 50.8828 135.641 50.4375 136.203 50.0625C136.719 49.6875 137.305 49.3828 137.961 49.1484C138.664 48.9141 139.344 48.75 140 48.6562Z" fill="url(#paint5_linear)"/>
<path d="M173.609 67.2891C172.484 67.2891 171.805 67.1484 171.57 66.8672C171.289 66.6328 171.242 66.1406 171.43 65.3906C171.477 65.1562 171.711 64.1016 172.133 62.2266C172.555 60.3984 173.07 58.1484 173.68 55.4766C174.336 52.8516 175.016 49.9922 175.719 46.8984C176.469 43.8047 177.172 40.8984 177.828 38.1797C176.844 38.2734 176.117 38.2031 175.648 37.9688C175.18 37.6875 174.945 37.3359 174.945 36.9141C174.992 36.4453 175.25 35.9766 175.719 35.5078C176.234 35.0391 176.961 34.6406 177.898 34.3125C178.086 34.2188 178.367 34.125 178.742 34.0312C178.977 33.2344 179.188 32.4141 179.375 31.5703C179.563 30.8672 179.75 30.1172 179.938 29.3203C180.125 28.5234 180.313 27.75 180.5 27L185.422 5.97656C185.703 4.89844 186.125 4.10156 186.688 3.58594C187.297 3.02344 188.398 2.55469 189.992 2.17969C191.305 1.85156 192.219 1.73438 192.734 1.82812C193.25 1.875 193.484 2.01562 193.438 2.25C193.297 2.76562 192.945 4.00781 192.383 5.97656C191.82 7.94531 191.141 10.3594 190.344 13.2188C189.594 16.0312 188.773 19.1484 187.883 22.5703C186.992 25.9453 186.125 29.2969 185.281 32.625C188.094 32.2031 191.516 31.8516 195.547 31.5703C197.094 31.3828 198.594 31.2656 200.047 31.2188C201.547 31.1719 202.977 31.1719 204.336 31.2188C204.992 28.6875 205.625 26.1562 206.234 23.625C206.891 21.0938 207.5 18.75 208.063 16.5938C208.625 14.4375 209.117 12.5391 209.539 10.8984C210.008 9.21094 210.359 7.96875 210.594 7.17188C210.875 6.28125 211.133 5.55469 211.367 4.99219C211.648 4.42969 211.953 3.98438 212.281 3.65625C212.656 3.32812 213.078 3.09375 213.547 2.95312C214.016 2.8125 214.555 2.69531 215.164 2.60156C215.492 2.60156 215.891 2.57812 216.359 2.53125C216.734 2.53125 217.18 2.53125 217.695 2.53125C218.211 2.48438 218.797 2.50781 219.453 2.60156C217.672 7.38281 216.008 12.2344 214.461 17.1562C212.961 22.0312 211.555 26.7891 210.242 31.4297C211.086 31.5234 211.813 31.5938 212.422 31.6406C213.078 31.6875 213.594 31.7578 213.969 31.8516C215.094 32.0391 215.797 32.3438 216.078 32.7656C216.406 33.1875 216.313 33.7969 215.797 34.5938L214.953 35.6484C214.672 36.0234 214.32 36.4688 213.898 36.9844C213.477 37.4531 212.938 37.9922 212.281 38.6016C211.906 38.4609 211.508 38.3203 211.086 38.1797C210.711 38.0391 210.336 37.8984 209.961 37.7578C209.492 37.6172 209.047 37.4766 208.625 37.3359C208.297 38.4609 207.992 39.5625 207.711 40.6406C207.43 41.6719 207.172 42.7266 206.938 43.8047C206.375 46.1016 205.836 48.4688 205.32 50.9062C204.898 53.0156 204.453 55.3359 203.984 57.8672C203.563 60.4453 203.234 62.9766 203 65.4609C202.625 65.6484 202.25 65.7656 201.875 65.8125C201.5 65.9062 201.172 65.9766 200.891 66.0234C200.563 66.0703 200.234 66.1172 199.906 66.1641H199.555C199.367 66.1641 199.18 66.1641 198.992 66.1641C198.805 66.1641 198.617 66.1172 198.43 66.0234C198.195 65.9766 197.961 65.9062 197.727 65.8125C197.492 65.7188 197.258 65.625 197.023 65.5312C196.836 65.4844 196.625 65.3906 196.391 65.25C196.766 63.7031 197.047 62.25 197.234 60.8906C197.469 59.5312 197.633 58.3359 197.727 57.3047C197.867 56.0859 197.961 55.0078 198.008 54.0703C198.055 52.8516 197.914 51.5156 197.586 50.0625C197.305 48.6094 196.836 47.1797 196.18 45.7734C195.57 44.3672 194.797 43.0547 193.859 41.8359C192.969 40.6172 191.938 39.5859 190.766 38.7422C189.594 37.9453 188.469 37.4297 187.391 37.1953C186.359 36.9609 185.305 36.8906 184.227 36.9844C183.898 38.3906 183.594 39.75 183.313 41.0625C183.031 42.375 182.797 43.6406 182.609 44.8594C182.094 47.5781 181.602 50.2266 181.133 52.8047C180.758 55.0078 180.359 57.2812 179.938 59.625C179.563 62.0156 179.281 64.0547 179.094 65.7422C178.344 66.1172 177.641 66.3984 176.984 66.5859C176.328 66.8203 175.742 66.9844 175.227 67.0781C174.664 67.2188 174.125 67.2891 173.609 67.2891ZM201.453 36.0703C199.813 35.8828 198.242 35.7891 196.742 35.7891C195.289 35.7422 194 35.7188 192.875 35.7188C193.813 36.2344 194.633 36.9141 195.336 37.7578C196.086 38.6016 196.859 39.5625 197.656 40.6406C198.406 41.625 199.016 42.7031 199.484 43.875C199.953 45.0469 200.352 46.1719 200.68 47.25C201.055 45.2812 201.453 43.3594 201.875 41.4844C202.297 39.6094 202.695 37.8516 203.07 36.2109C202.789 36.1641 202.508 36.1406 202.227 36.1406C201.992 36.0938 201.734 36.0703 201.453 36.0703Z" fill="url(#paint6_linear)"/>
<path d="M239.563 42.8203C239.094 44.6016 238.461 46.2656 237.664 47.8125C236.867 49.3594 235.906 50.6953 234.781 51.8203C233.703 52.9453 232.461 53.8125 231.055 54.4219C229.695 55.0781 228.195 55.4062 226.555 55.4062C224.633 55.4062 223.109 54.9844 221.984 54.1406C220.906 53.3438 220.086 52.3359 219.523 51.1172C219.008 49.8984 218.703 48.5625 218.609 47.1094C218.469 45.6562 218.398 44.2969 218.398 43.0312C218.398 42.1406 218.516 41.1562 218.75 40.0781C218.938 39 219.219 37.8984 219.594 36.7734C219.969 35.6484 220.438 34.5234 221 33.3984C221.609 32.2734 222.313 31.2422 223.109 30.3047C223.391 29.5078 223.813 28.8047 224.375 28.1953C224.984 27.5859 225.664 27.0938 226.414 26.7188C227.211 26.2969 228.055 25.9922 228.945 25.8047C229.836 25.5703 230.703 25.4531 231.547 25.4531C231.688 25.4531 231.805 25.4766 231.898 25.5234C232.039 25.5703 232.18 25.6172 232.32 25.6641C232.93 25.7109 233.68 25.9453 234.57 26.3672C235.508 26.7891 236.398 27.4219 237.242 28.2656C238.133 29.1094 238.883 30.1875 239.492 31.5C240.102 32.7656 240.406 34.3125 240.406 36.1406C240.406 36.5156 240.383 36.9844 240.336 37.5469C240.289 38.0625 240.242 38.5078 240.195 38.8828C241.273 38.4609 242.398 37.9453 243.57 37.3359C244.742 36.7266 245.867 36.0938 246.945 35.4375C248.07 34.7344 249.102 34.0312 250.039 33.3281C250.977 32.625 251.727 31.9922 252.289 31.4297C252.758 31.0078 253.156 30.7734 253.484 30.7266C253.813 30.6797 254.047 30.7734 254.188 31.0078C254.328 31.2422 254.352 31.5703 254.258 31.9922C254.164 32.4141 253.906 32.8828 253.484 33.3984C253.25 33.6797 252.641 34.2422 251.656 35.0859C250.719 35.9297 249.594 36.8438 248.281 37.8281C246.969 38.8125 245.539 39.7734 243.992 40.7109C242.445 41.6484 240.969 42.3516 239.563 42.8203ZM227.68 32.1328C227.539 32.5547 227.469 33 227.469 33.4688C227.469 34.2188 227.516 35.0156 227.609 35.8594C227.703 36.6562 227.938 37.3828 228.313 38.0391C228.688 38.6953 229.273 39.2578 230.07 39.7266C230.914 40.1484 232.063 40.3594 233.516 40.3594C233.75 40.3594 233.984 40.3594 234.219 40.3594C234.453 40.3125 234.688 40.2656 234.922 40.2188C235.063 39.6094 235.18 39.0703 235.273 38.6016C235.414 38.0859 235.484 37.6406 235.484 37.2656C235.578 36.375 235.578 35.4609 235.484 34.5234C235.391 33.5859 235.203 32.7422 234.922 31.9922C234.688 31.1953 234.359 30.5625 233.938 30.0938C233.563 29.5781 233.094 29.3203 232.531 29.3203C231.641 29.3203 230.773 29.5781 229.93 30.0938C229.133 30.5625 228.383 31.2422 227.68 32.1328ZM223.18 44.5078C223.18 45.3516 223.227 46.1953 223.32 47.0391C223.414 47.8359 223.602 48.5625 223.883 49.2188C224.164 49.8281 224.539 50.3438 225.008 50.7656C225.477 51.1406 226.086 51.3281 226.836 51.3281C227.68 51.3281 228.453 51.1406 229.156 50.7656C229.859 50.3438 230.492 49.8281 231.055 49.2188C231.617 48.5625 232.109 47.8359 232.531 47.0391C233 46.1953 233.398 45.3281 233.727 44.4375C233.398 44.4844 233.07 44.5312 232.742 44.5781C232.461 44.5781 232.133 44.5781 231.758 44.5781C229.977 44.5781 228.43 44.0625 227.117 43.0312C225.852 41.9531 224.867 40.5938 224.164 38.9531C223.883 39.9375 223.648 40.8984 223.461 41.8359C223.273 42.7734 223.18 43.6641 223.18 44.5078Z" fill="url(#paint7_linear)"/>
<path d="M283.719 41.8359C283.062 43.5234 282.312 45.1641 281.469 46.7578C280.625 48.3516 279.688 49.7812 278.656 51.0469C277.625 52.3125 276.523 53.3203 275.352 54.0703C274.18 54.8203 272.914 55.1953 271.555 55.1953C269.352 55.1953 267.688 54.4688 266.562 53.0156C265.438 51.5156 264.664 49.6875 264.242 47.5312C263.586 48.5156 262.883 49.5 262.133 50.4844C261.383 51.4688 260.586 52.3359 259.742 53.0859C258.898 53.8359 258.031 54.4453 257.141 54.9141C256.25 55.3828 255.359 55.6172 254.469 55.6172C253.25 55.6172 252.219 55.3594 251.375 54.8438C250.531 54.3281 249.828 53.625 249.266 52.7344C248.75 51.7969 248.375 50.7422 248.141 49.5703C247.906 48.3516 247.789 47.0625 247.789 45.7031V44.8594C247.789 43.125 247.93 41.3438 248.211 39.5156C248.492 37.6875 248.797 36 249.125 34.4531C249.5 32.9062 249.875 31.5703 250.25 30.4453C250.625 29.2734 250.906 28.5 251.094 28.125C251.422 27.6562 252.125 27.2109 253.203 26.7891C254.328 26.3203 255.43 26.1328 256.508 26.2266C257.023 26.2734 257.281 26.4844 257.281 26.8594C257.328 27.2344 257.281 27.7031 257.141 28.2656C256.953 29.0625 256.625 30.2578 256.156 31.8516C255.688 33.4453 255.195 35.1797 254.68 37.0547C254.211 38.9297 253.789 40.7812 253.414 42.6094C253.039 44.4375 252.852 45.9609 252.852 47.1797C252.852 48.6797 253.086 49.7578 253.555 50.4141C254.023 51.0703 254.75 51.3984 255.734 51.3984C256.906 51.3984 258.195 50.7422 259.602 49.4297C261.055 48.1172 262.461 45.8906 263.82 42.75C263.773 42.4688 263.75 42.1875 263.75 41.9062C263.75 41.625 263.75 41.3203 263.75 40.9922C263.75 38.8828 263.82 36.8672 263.961 34.9453C264.148 33.0234 264.477 31.3359 264.945 29.8828C265.461 28.4297 266.141 27.2812 266.984 26.4375C267.875 25.5938 269.023 25.1719 270.43 25.1719C270.992 25.1719 271.461 25.3359 271.836 25.6641C272.211 25.9922 272.398 26.4609 272.398 27.0703C272.398 28.5703 271.859 30.7031 270.781 33.4688C269.75 36.1875 268.508 39.1875 267.055 42.4688C266.914 42.6562 266.82 42.8438 266.773 43.0312C266.914 43.9219 267.078 44.8594 267.266 45.8438C267.5 46.8281 267.805 47.7422 268.18 48.5859C268.555 49.3828 269 50.0625 269.516 50.625C270.031 51.1406 270.641 51.3984 271.344 51.3984C272.375 51.3984 273.312 50.9062 274.156 49.9219C275.047 48.9375 275.82 47.7422 276.477 46.3359C277.18 44.9297 277.789 43.4531 278.305 41.9062C278.82 40.3125 279.219 38.9062 279.5 37.6875C279.359 37.1719 279.242 36.6797 279.148 36.2109C279.055 35.6953 279.008 35.1094 279.008 34.4531C279.008 33 279.219 31.7578 279.641 30.7266C280.062 29.6953 280.602 28.8516 281.258 28.1953C281.961 27.4922 282.688 26.9766 283.438 26.6484C284.234 26.3203 284.961 26.1562 285.617 26.1562C286.789 26.1562 287.375 26.6719 287.375 27.7031C287.375 28.4531 287.188 29.7656 286.812 31.6406C286.438 33.4688 285.898 35.5547 285.195 37.8984C286.039 38.2734 287.117 38.4609 288.43 38.4609C289.648 38.4609 290.773 38.3203 291.805 38.0391C292.836 37.7109 293.773 37.3125 294.617 36.8438C295.461 36.375 296.234 35.8594 296.938 35.2969C297.641 34.7344 298.32 34.1953 298.977 33.6797C299.492 33.3047 299.914 33.2812 300.242 33.6094C300.57 33.9375 300.523 34.4531 300.102 35.1562C299.727 35.7656 299.07 36.4688 298.133 37.2656C297.242 38.0625 296.141 38.8359 294.828 39.5859C293.562 40.2891 292.133 40.8984 290.539 41.4141C288.992 41.8828 287.352 42.1172 285.617 42.1172C285.336 42.1172 285.031 42.0938 284.703 42.0469C284.375 42 284.047 41.9297 283.719 41.8359Z" fill="url(#paint8_linear)"/>
<path d="M344.258 1.05469C345.898 1.05469 347.234 1.52344 348.266 2.46094C349.344 3.35156 349.812 4.99219 349.672 7.38281C349.625 8.17969 349.438 9.67969 349.109 11.8828C348.781 14.0391 348.383 16.5938 347.914 19.5469C347.445 22.5 346.906 25.6875 346.297 29.1094C345.734 32.4844 345.195 35.7891 344.68 39.0234H346.156C346.625 39.0234 347.141 39 347.703 38.9531C348.266 38.9062 348.852 38.8359 349.461 38.7422C349.227 39.3047 348.969 39.8438 348.688 40.3594C348.406 40.8281 348.125 41.25 347.844 41.625C347.516 42.0469 347.188 42.4219 346.859 42.75C346.438 43.2656 345.945 43.7344 345.383 44.1562C344.82 44.5312 344.281 44.8359 343.766 45.0703C343.438 47.3672 343.156 49.4297 342.922 51.2578C342.734 53.0391 342.617 54.5156 342.57 55.6875C342.477 57.4688 342.523 59.1328 342.711 60.6797C342.852 62.0391 343.133 63.4219 343.555 64.8281C343.977 66.2344 344.656 67.3594 345.594 68.2031L337.438 70.875C336.875 70.0781 336.453 69 336.172 67.6406C335.938 66.3281 335.773 65.0156 335.68 63.7031C335.539 62.1562 335.516 60.5625 335.609 58.9219C335.703 57.2812 335.961 55.1484 336.383 52.5234C336.805 49.8516 337.273 46.9453 337.789 43.8047C336.852 43.5234 335.82 43.2891 334.695 43.1016C333.617 42.9141 332.398 42.8203 331.039 42.8203C329.82 42.8203 328.531 42.8672 327.172 42.9609C325.859 43.0547 324.547 43.1719 323.234 43.3125C322.672 45.375 322.109 47.5547 321.547 49.8516C320.938 52.3359 320.375 54.4453 319.859 56.1797C319.391 57.9609 318.922 59.4375 318.453 60.6094C318.031 61.7812 317.586 62.7188 317.117 63.4219C316.695 64.125 316.227 64.6406 315.711 64.9688C315.148 65.25 314.445 65.5078 313.602 65.7422C312.805 65.9766 311.797 66.2109 310.578 66.4453C309.359 66.6797 307.789 66.8672 305.867 67.0078C306.57 66.1641 307.18 65.3906 307.695 64.6875C308.211 63.9844 308.727 63.1172 309.242 62.0859C309.758 61.0547 310.344 59.7188 311 58.0781C311.609 56.4844 312.406 54.375 313.391 51.75C313.812 50.6719 314.234 49.5 314.656 48.2344C315.125 46.9219 315.617 45.5859 316.133 44.2266C314.445 44.4609 313.016 44.6719 311.844 44.8594C310.672 45.0469 309.969 45.1875 309.734 45.2812C309.359 45.3281 309.055 45.3281 308.82 45.2812C308.211 45.1875 307.883 44.8828 307.836 44.3672C307.883 43.7109 308.117 43.2656 308.539 43.0312C308.914 42.7969 309.5 42.5156 310.297 42.1875C310.672 42 311.539 41.6719 312.898 41.2031C314.211 40.6875 315.828 40.1484 317.75 39.5859C318.453 37.6172 319.133 35.6719 319.789 33.75C320.492 31.7812 321.172 29.9062 321.828 28.125C322.484 26.3438 323.117 24.6797 323.727 23.1328C324.336 21.5391 324.898 20.1797 325.414 19.0547C326.211 17.3203 327.219 15.4219 328.438 13.3594C329.703 11.25 331.133 9.28125 332.727 7.45312C334.367 5.625 336.148 4.10156 338.07 2.88281C340.039 1.66406 342.102 1.05469 344.258 1.05469ZM343.484 15.6797C344 13.5703 344.352 11.8359 344.539 10.4766C344.727 9.11719 344.797 8.0625 344.75 7.3125C344.703 6.51562 344.539 5.97656 344.258 5.69531C344.023 5.36719 343.719 5.20312 343.344 5.20312C342.734 5.20312 341.984 5.4375 341.094 5.90625C340.203 6.375 339.266 7.05469 338.281 7.94531C337.297 8.78906 336.312 9.86719 335.328 11.1797C334.391 12.4453 333.547 13.8984 332.797 15.5391C331.719 17.9766 330.5 20.9766 329.141 24.5391C327.781 28.0547 326.305 32.5547 324.711 38.0391C325.648 37.8984 326.562 37.7812 327.453 37.6875C328.391 37.5938 329.305 37.5469 330.195 37.5469C331.789 37.5469 333.312 37.6172 334.766 37.7578C336.219 37.8516 337.555 37.9688 338.773 38.1094C339.195 35.8594 339.617 33.6562 340.039 31.5C340.508 29.2969 340.953 27.2109 341.375 25.2422C341.797 23.2734 342.172 21.4688 342.5 19.8281C342.875 18.1875 343.203 16.8047 343.484 15.6797Z" fill="url(#paint9_linear)"/>
<path d="M369.711 13.7109C369.008 16.5234 368.211 19.2188 367.32 21.7969C366.477 24.3281 365.586 26.7188 364.648 28.9688C363.758 31.1719 362.844 33.1875 361.906 35.0156C361.016 36.8438 360.219 38.4375 359.516 39.7969C359.047 43.1719 359.047 45.8906 359.516 47.9531C359.984 50.0156 360.898 51.0469 362.258 51.0469C363.383 51.0469 364.484 50.5312 365.562 49.5C366.641 48.4688 367.602 47.2031 368.445 45.7031C369.289 44.2031 369.992 42.6094 370.555 40.9219C371.164 39.1875 371.539 37.6406 371.68 36.2812C370.789 36.0469 370.039 35.6484 369.43 35.0859C368.82 34.4766 368.516 33.6797 368.516 32.6953C368.516 32.0391 368.703 31.4297 369.078 30.8672C369.453 30.2578 369.898 29.7422 370.414 29.3203C370.93 28.8984 371.492 28.5703 372.102 28.3359C372.711 28.1016 373.273 27.9844 373.789 27.9844C374.586 27.9844 375.266 28.5 375.828 29.5312C376.391 30.5156 376.766 31.7812 376.953 33.3281C378.828 33.2812 380.797 33 382.859 32.4844C384.922 31.9688 386.867 31.3125 388.695 30.5156C389.211 30.2812 389.633 30.2109 389.961 30.3047C390.289 30.3984 390.5 30.5859 390.594 30.8672C390.734 31.1484 390.734 31.4766 390.594 31.8516C390.453 32.1797 390.172 32.4375 389.75 32.625C388.672 33.2344 387.547 33.7969 386.375 34.3125C385.25 34.7812 384.125 35.1797 383 35.5078C381.875 35.8359 380.797 36.0938 379.766 36.2812C378.734 36.4688 377.797 36.5625 376.953 36.5625C376.766 38.4375 376.18 40.4766 375.195 42.6797C374.211 44.8359 373.016 46.8516 371.609 48.7266C370.203 50.5547 368.633 52.0781 366.898 53.2969C365.211 54.5156 363.547 55.125 361.906 55.125C361.391 55.125 360.711 55.0547 359.867 54.9141C359.023 54.7734 358.203 54.2812 357.406 53.4375C356.609 52.5938 355.93 51.2578 355.367 49.4297C354.805 47.5547 354.57 44.9062 354.664 41.4844C354.711 39.1875 354.969 36.75 355.438 34.1719C355.906 31.5938 356.469 29.0156 357.125 26.4375C357.781 23.8594 358.508 21.375 359.305 18.9844C360.148 16.5469 360.945 14.3672 361.695 12.4453C362.445 10.4766 363.125 8.83594 363.734 7.52344C364.391 6.21094 364.883 5.36719 365.211 4.99219C365.633 4.47656 366.125 4.10156 366.688 3.86719C367.25 3.58594 367.789 3.39844 368.305 3.30469C368.867 3.16406 369.383 3.11719 369.852 3.16406C370.32 3.21094 370.648 3.28125 370.836 3.375C371.117 3.5625 371.188 4.59375 371.047 6.46875C370.953 8.34375 370.508 10.7578 369.711 13.7109Z" fill="url(#paint10_linear)"/>
<path d="M404.305 42.8203C403.836 44.6016 403.203 46.2656 402.406 47.8125C401.609 49.3594 400.648 50.6953 399.523 51.8203C398.445 52.9453 397.203 53.8125 395.797 54.4219C394.438 55.0781 392.938 55.4062 391.297 55.4062C389.375 55.4062 387.852 54.9844 386.727 54.1406C385.648 53.3438 384.828 52.3359 384.266 51.1172C383.75 49.8984 383.445 48.5625 383.352 47.1094C383.211 45.6562 383.141 44.2969 383.141 43.0312C383.141 42.1406 383.258 41.1562 383.492 40.0781C383.68 39 383.961 37.8984 384.336 36.7734C384.711 35.6484 385.18 34.5234 385.742 33.3984C386.352 32.2734 387.055 31.2422 387.852 30.3047C388.133 29.5078 388.555 28.8047 389.117 28.1953C389.727 27.5859 390.406 27.0938 391.156 26.7188C391.953 26.2969 392.797 25.9922 393.688 25.8047C394.578 25.5703 395.445 25.4531 396.289 25.4531C396.43 25.4531 396.547 25.4766 396.641 25.5234C396.781 25.5703 396.922 25.6172 397.062 25.6641C397.672 25.7109 398.422 25.9453 399.312 26.3672C400.25 26.7891 401.141 27.4219 401.984 28.2656C402.875 29.1094 403.625 30.1875 404.234 31.5C404.844 32.7656 405.148 34.3125 405.148 36.1406C405.148 36.5156 405.125 36.9844 405.078 37.5469C405.031 38.0625 404.984 38.5078 404.938 38.8828C406.016 38.4609 407.141 37.9453 408.312 37.3359C409.484 36.7266 410.609 36.0938 411.688 35.4375C412.812 34.7344 413.844 34.0312 414.781 33.3281C415.719 32.625 416.469 31.9922 417.031 31.4297C417.5 31.0078 417.898 30.7734 418.227 30.7266C418.555 30.6797 418.789 30.7734 418.93 31.0078C419.07 31.2422 419.094 31.5703 419 31.9922C418.906 32.4141 418.648 32.8828 418.227 33.3984C417.992 33.6797 417.383 34.2422 416.398 35.0859C415.461 35.9297 414.336 36.8438 413.023 37.8281C411.711 38.8125 410.281 39.7734 408.734 40.7109C407.188 41.6484 405.711 42.3516 404.305 42.8203ZM392.422 32.1328C392.281 32.5547 392.211 33 392.211 33.4688C392.211 34.2188 392.258 35.0156 392.352 35.8594C392.445 36.6562 392.68 37.3828 393.055 38.0391C393.43 38.6953 394.016 39.2578 394.812 39.7266C395.656 40.1484 396.805 40.3594 398.258 40.3594C398.492 40.3594 398.727 40.3594 398.961 40.3594C399.195 40.3125 399.43 40.2656 399.664 40.2188C399.805 39.6094 399.922 39.0703 400.016 38.6016C400.156 38.0859 400.227 37.6406 400.227 37.2656C400.32 36.375 400.32 35.4609 400.227 34.5234C400.133 33.5859 399.945 32.7422 399.664 31.9922C399.43 31.1953 399.102 30.5625 398.68 30.0938C398.305 29.5781 397.836 29.3203 397.273 29.3203C396.383 29.3203 395.516 29.5781 394.672 30.0938C393.875 30.5625 393.125 31.2422 392.422 32.1328ZM387.922 44.5078C387.922 45.3516 387.969 46.1953 388.062 47.0391C388.156 47.8359 388.344 48.5625 388.625 49.2188C388.906 49.8281 389.281 50.3438 389.75 50.7656C390.219 51.1406 390.828 51.3281 391.578 51.3281C392.422 51.3281 393.195 51.1406 393.898 50.7656C394.602 50.3438 395.234 49.8281 395.797 49.2188C396.359 48.5625 396.852 47.8359 397.273 47.0391C397.742 46.1953 398.141 45.3281 398.469 44.4375C398.141 44.4844 397.812 44.5312 397.484 44.5781C397.203 44.5781 396.875 44.5781 396.5 44.5781C394.719 44.5781 393.172 44.0625 391.859 43.0312C390.594 41.9531 389.609 40.5938 388.906 38.9531C388.625 39.9375 388.391 40.8984 388.203 41.8359C388.016 42.7734 387.922 43.6641 387.922 44.5078Z" fill="url(#paint11_linear)"/>
<path d="M420.547 55.125C418.766 55.125 417.312 54.8438 416.188 54.2812C415.062 53.7188 414.172 53.0391 413.516 52.2422C412.906 51.3984 412.461 50.5078 412.18 49.5703C411.945 48.5859 411.828 47.6953 411.828 46.8984C411.828 45.4922 411.945 44.0156 412.18 42.4688C412.414 40.875 412.695 39.4219 413.023 38.1094C413.352 36.75 413.633 35.6016 413.867 34.6641C414.148 33.7266 414.336 33.1406 414.43 32.9062C414.852 31.5469 415.391 30.375 416.047 29.3906C416.75 28.3594 417.711 27.6562 418.93 27.2812C419.398 27.1875 419.891 27.0938 420.406 27C420.828 26.9531 421.25 26.9297 421.672 26.9297C422.141 26.9297 422.562 27 422.938 27.1406C421.672 30.375 420.664 33.0703 419.914 35.2266C419.211 37.3828 418.672 39.1406 418.297 40.5C417.875 42.0469 417.617 43.2891 417.523 44.2266C417.289 46.3359 417.477 47.9297 418.086 49.0078C418.695 50.0859 419.938 50.625 421.812 50.625C423.031 50.625 424.203 50.1797 425.328 49.2891C426.453 48.3516 427.484 47.1562 428.422 45.7031C428.281 44.9531 428.211 44.1797 428.211 43.3828C428.211 41.8828 428.328 40.4297 428.562 39.0234C428.844 37.5703 429.148 36.2344 429.477 35.0156C429.852 33.75 430.227 32.625 430.602 31.6406C431.023 30.6562 431.375 29.8828 431.656 29.3203C432.172 28.1953 432.641 27.5156 433.062 27.2812C433.484 27 434.164 26.8359 435.102 26.7891C435.477 26.7422 435.781 26.7422 436.016 26.7891C436.297 26.7891 436.531 26.8125 436.719 26.8594C437.281 27 437.562 27.2812 437.562 27.7031C437.562 28.4531 437.516 29.5781 437.422 31.0781C437.328 32.5781 437.047 34.125 436.578 35.7188C436.25 37.0312 435.922 38.1562 435.594 39.0938C435.312 39.9844 435.031 40.7578 434.75 41.4141C434.469 42.0234 434.188 42.5391 433.906 42.9609C433.625 43.3359 433.367 43.6875 433.133 44.0156C433.227 45.4219 433.344 46.5469 433.484 47.3906C433.625 48.2344 433.789 48.8906 433.977 49.3594C434.211 49.7812 434.469 50.0859 434.75 50.2734C435.078 50.4141 435.43 50.4844 435.805 50.4844C436.461 50.4844 437.234 50.1797 438.125 49.5703C439.016 48.9141 439.93 48.1172 440.867 47.1797C441.852 46.1953 442.812 45.1406 443.75 44.0156C444.734 42.8438 445.625 41.7422 446.422 40.7109C447.219 39.6797 447.898 38.7891 448.461 38.0391C449.023 37.2422 449.375 36.75 449.516 36.5625C449.844 36.1406 450.148 35.8828 450.43 35.7891C450.758 35.6953 451.016 35.7422 451.203 35.9297C451.391 36.0703 451.484 36.3281 451.484 36.7031C451.531 37.0312 451.438 37.4062 451.203 37.8281C450.266 39.6094 449.094 41.5078 447.688 43.5234C446.328 45.4922 444.852 47.3203 443.258 49.0078C441.711 50.6953 440.141 52.1016 438.547 53.2266C436.953 54.3516 435.453 54.9141 434.047 54.9141C432.781 54.9141 431.773 54.4922 431.023 53.6484C430.32 52.7578 429.711 51.4922 429.195 49.8516C428.117 51.5391 426.852 52.8516 425.398 53.7891C423.945 54.6797 422.328 55.125 420.547 55.125Z" fill="url(#paint12_linear)"/>
<path d="M471.523 36.2109C471.711 35.9297 471.945 35.7656 472.227 35.7188C472.555 35.625 472.812 35.6484 473 35.7891C473.188 35.9297 473.281 36.1641 473.281 36.4922C473.328 36.8203 473.211 37.2656 472.93 37.8281C471.992 39.6094 470.75 41.5312 469.203 43.5938C467.703 45.6562 466.109 47.6016 464.422 49.4297C462.734 51.2109 461.094 52.6875 459.5 53.8594C457.906 55.0312 456.57 55.6172 455.492 55.6172C453.945 55.6172 452.656 55.3125 451.625 54.7031C450.594 54.0938 449.773 53.3438 449.164 52.4531C448.602 51.5625 448.203 50.6016 447.969 49.5703C447.734 48.4922 447.664 47.5078 447.758 46.6172C447.805 45.8672 447.969 44.5312 448.25 42.6094C448.531 40.6406 448.906 38.3906 449.375 35.8594C449.844 33.2812 450.359 30.5391 450.922 27.6328C451.531 24.6797 452.164 21.8438 452.82 19.125C452.023 19.2188 451.227 19.3125 450.43 19.4062C449.633 19.5 448.906 19.5469 448.25 19.5469C446.75 19.5469 445.344 19.3828 444.031 19.0547C442.672 18.6797 441.664 18.3281 441.008 18C440.633 17.8125 440.469 17.5547 440.516 17.2266C440.562 16.8516 440.703 16.5 440.938 16.1719C441.172 15.7969 441.477 15.4922 441.852 15.2578C442.18 14.9766 442.484 14.8359 442.766 14.8359C443.656 14.9297 444.617 15.0234 445.648 15.1172C446.68 15.1641 447.805 15.1641 449.023 15.1172C449.914 15.0703 450.758 15 451.555 14.9062C452.398 14.8125 453.219 14.6953 454.016 14.5547C454.625 12.3047 455.211 10.3594 455.773 8.71875C456.383 7.03125 456.922 5.85938 457.391 5.20312C457.531 4.96875 457.836 4.78125 458.305 4.64062C458.82 4.45312 459.359 4.33594 459.922 4.28906C460.484 4.19531 461.023 4.19531 461.539 4.28906C462.055 4.33594 462.43 4.5 462.664 4.78125C462.898 5.15625 462.992 6.11719 462.945 7.66406C462.898 9.21094 462.641 11.1797 462.172 13.5703C464.141 13.5703 465.875 13.6875 467.375 13.9219C468.922 14.1094 470.234 14.3438 471.312 14.625C472.391 14.8594 473.258 15.1172 473.914 15.3984C474.57 15.6328 475.062 15.7969 475.391 15.8906C475.719 15.9844 475.883 16.2188 475.883 16.5938C475.93 16.9688 475.859 17.3672 475.672 17.7891C475.531 18.1641 475.273 18.4922 474.898 18.7734C474.523 19.0547 474.102 19.1484 473.633 19.0547C473.164 19.0078 472.625 18.9141 472.016 18.7734C471.453 18.6328 470.75 18.5156 469.906 18.4219C469.109 18.3281 468.148 18.2344 467.023 18.1406C465.898 18.0469 464.586 18 463.086 18C462.805 18 462.477 18.0234 462.102 18.0703C461.773 18.0703 461.422 18.0703 461.047 18.0703C460.859 18.8203 460.672 19.5703 460.484 20.3203C460.344 21.0234 460.133 21.7734 459.852 22.5703C459.242 24.4453 458.539 26.4844 457.742 28.6875C457.039 30.6094 456.195 32.8125 455.211 35.2969C454.227 37.7812 453.125 40.4297 451.906 43.2422C451.625 45.2578 451.648 46.8047 451.977 47.8828C452.352 48.9141 452.797 49.6641 453.312 50.1328C453.922 50.6484 454.672 50.9297 455.562 50.9766C456.266 51.0703 457.109 50.8359 458.094 50.2734C459.125 49.6641 460.18 48.8672 461.258 47.8828C462.336 46.8984 463.414 45.8203 464.492 44.6484C465.617 43.4766 466.648 42.3281 467.586 41.2031C468.523 40.0781 469.344 39.0703 470.047 38.1797C470.75 37.2422 471.242 36.5859 471.523 36.2109Z" fill="url(#paint13_linear)"/>
<path d="M491.773 9.98438C491.211 10.1719 490.789 10.1953 490.508 10.0547C490.227 9.91406 490.016 9.67969 489.875 9.35156C489.734 9.02344 489.664 8.67188 489.664 8.29688C489.664 7.875 489.688 7.47656 489.734 7.10156C489.781 6.77344 489.852 6.39844 489.945 5.97656C490.086 5.55469 490.25 5.15625 490.438 4.78125C490.625 4.40625 490.836 4.10156 491.07 3.86719C491.352 3.58594 491.703 3.39844 492.125 3.30469C494.281 2.92969 496.367 2.64844 498.383 2.46094C500.445 2.27344 502.297 2.13281 503.938 2.03906C505.812 1.89844 507.617 1.82812 509.352 1.82812C509.727 1.82812 510.102 1.85156 510.477 1.89844C510.852 1.89844 511.227 1.89844 511.602 1.89844C512.023 1.80469 512.352 1.78125 512.586 1.82812C512.867 1.82812 513.102 1.85156 513.289 1.89844C514.648 1.94531 516.055 2.01562 517.508 2.10938C518.727 2.20312 520.086 2.32031 521.586 2.46094C523.133 2.55469 524.656 2.69531 526.156 2.88281C526.297 3.25781 526.32 3.72656 526.227 4.28906C526.18 4.57031 526.133 4.85156 526.086 5.13281C526.039 5.41406 525.922 5.67188 525.734 5.90625C525.594 6.14062 525.406 6.375 525.172 6.60938C524.984 6.79688 524.75 6.96094 524.469 7.10156C522.875 7.05469 521.328 7.03125 519.828 7.03125C518.375 6.98438 517.086 6.96094 515.961 6.96094H512.164C511.555 9.11719 510.805 11.7891 509.914 14.9766C509.023 18.1172 508.109 21.4453 507.172 24.9609C506.281 28.4297 505.414 31.8984 504.57 35.3672C503.773 38.7891 503.141 41.8828 502.672 44.6484C502.203 47.3203 501.734 49.9453 501.266 52.5234C501.078 53.6016 500.867 54.7266 500.633 55.8984C500.445 57.0703 500.258 58.2188 500.07 59.3438C499.93 60.4688 499.789 61.5469 499.648 62.5781C499.508 63.6094 499.391 64.5469 499.297 65.3906C498.547 65.7656 497.844 66.0469 497.188 66.2344C496.531 66.4688 495.945 66.6328 495.43 66.7266C494.82 66.8672 494.258 66.9375 493.742 66.9375C492.617 66.9375 491.914 66.7969 491.633 66.5156C491.398 66.2812 491.375 65.7891 491.562 65.0391C491.703 64.3828 492.125 62.6016 492.828 59.6953C493.109 58.4766 493.461 56.9297 493.883 55.0547C494.352 53.2266 494.891 51 495.5 48.375C496.109 45.7031 496.836 42.6094 497.68 39.0938C498.523 35.5312 499.484 31.4531 500.562 26.8594L505.273 7.3125C503.867 7.5 502.484 7.71094 501.125 7.94531C499.766 8.17969 498.477 8.4375 497.258 8.71875C496.086 8.95312 495.008 9.1875 494.023 9.42188C493.086 9.65625 492.336 9.84375 491.773 9.98438Z" fill="url(#paint14_linear)"/>
<path d="M554.281 38.5312C554.609 38.1562 554.938 37.9688 555.266 37.9688C555.641 37.9219 555.922 38.0156 556.109 38.25C556.344 38.4375 556.438 38.7422 556.391 39.1641C556.391 39.5859 556.203 40.0547 555.828 40.5703C554.938 41.7891 553.906 43.0547 552.734 44.3672C551.562 45.6328 550.297 46.875 548.938 48.0938C547.625 49.3125 546.289 50.4609 544.93 51.5391C543.57 52.6172 542.258 53.5078 540.992 54.2109C539.586 55.0078 538.391 55.4062 537.406 55.4062C536.469 55.4062 535.531 54.7969 534.594 53.5781C533.75 52.5 533.328 51.3516 533.328 50.1328C533.375 48.8672 533.656 47.2969 534.172 45.4219C534.5 44.25 534.945 42.8672 535.508 41.2734C536.117 39.6328 536.586 38.0625 536.914 36.5625C537.289 35.0625 537.406 33.7969 537.266 32.7656C537.125 31.6875 536.516 31.1484 535.438 31.1484C534.688 31.1484 533.867 31.4062 532.977 31.9219C532.133 32.4375 531.266 33.1172 530.375 33.9609C529.531 34.7578 528.711 35.6719 527.914 36.7031C527.117 37.7344 526.414 38.7422 525.805 39.7266C525.43 41.5547 525.055 43.3594 524.68 45.1406C524.352 46.6406 524 48.2812 523.625 50.0625C523.297 51.7969 522.969 53.3438 522.641 54.7031C522.359 54.9375 522.055 55.1016 521.727 55.1953C521.398 55.2891 521.094 55.3359 520.812 55.3359C520.484 55.3359 520.156 55.3125 519.828 55.2656C519.453 55.1719 519.102 55.0312 518.773 54.8438C518.492 54.6562 518.211 54.3984 517.93 54.0703C517.648 53.7891 517.438 53.3906 517.297 52.875C519.406 44.2031 521.07 37.2422 522.289 31.9922C523.508 26.7422 524.445 22.7344 525.102 19.9688C525.852 16.6875 526.367 14.4141 526.648 13.1484C526.789 12.2578 526.906 11.3906 527 10.5469C527.094 9.79688 527.141 9.02344 527.141 8.22656C527.141 7.42969 527.07 6.70312 526.93 6.04688C527.305 5.8125 527.703 5.625 528.125 5.48438C528.594 5.34375 529.039 5.22656 529.461 5.13281C529.977 4.99219 530.492 4.875 531.008 4.78125C531.523 4.6875 531.992 4.64062 532.414 4.64062C532.789 4.64062 533.141 4.6875 533.469 4.78125C533.797 4.82812 534.008 4.96875 534.102 5.20312C534.383 5.4375 534.5 5.90625 534.453 6.60938C534.453 7.3125 534.406 8.03906 534.312 8.78906C534.125 9.67969 533.914 10.6406 533.68 11.6719C532.695 15.4688 531.594 19.1719 530.375 22.7812C529.156 26.3438 528.031 30.1641 527 34.2422C527.609 33.3047 528.336 32.3438 529.18 31.3594C530.023 30.375 530.938 29.4844 531.922 28.6875C532.953 27.8438 534.031 27.1641 535.156 26.6484C536.281 26.0859 537.477 25.8047 538.742 25.8047C539.398 25.8047 540.008 25.9219 540.57 26.1562C541.18 26.3438 541.695 26.6953 542.117 27.2109C542.586 27.6797 542.938 28.3359 543.172 29.1797C543.406 29.9766 543.5 30.9844 543.453 32.2031C543.453 32.9531 543.359 33.7266 543.172 34.5234C543.031 35.3203 542.82 36.2109 542.539 37.1953C542.258 38.1328 541.883 39.1875 541.414 40.3594C540.992 41.5312 540.477 42.8906 539.867 44.4375C539.445 45.5156 539.117 46.4297 538.883 47.1797C538.648 47.9297 538.695 48.5859 539.023 49.1484C539.445 49.8984 540.266 50.0859 541.484 49.7109C542.75 49.2891 544.625 48.0703 547.109 46.0547C547.672 45.5859 548.305 45 549.008 44.2969C549.711 43.5938 550.391 42.8906 551.047 42.1875C551.703 41.4375 552.312 40.7344 552.875 40.0781C553.438 39.4219 553.906 38.9062 554.281 38.5312Z" fill="url(#paint15_linear)"/>
<path d="M567.008 12.5859C566.867 13.1016 566.586 13.6172 566.164 14.1328C565.789 14.6016 565.344 15 564.828 15.3281C564.359 15.6094 563.867 15.7969 563.352 15.8906C562.836 15.9844 562.414 15.8906 562.086 15.6094C561.102 14.8594 560.586 14.0625 560.539 13.2188C560.492 12.3281 560.703 11.5078 561.172 10.7578C561.641 9.96094 562.227 9.30469 562.93 8.78906C563.633 8.22656 564.242 7.89844 564.758 7.80469C565.273 7.71094 565.695 7.82812 566.023 8.15625C566.398 8.4375 566.68 8.83594 566.867 9.35156C567.055 9.82031 567.148 10.3594 567.148 10.9688C567.195 11.5781 567.148 12.1172 567.008 12.5859ZM557.305 27.5625C557.539 27.2812 557.984 27.0469 558.641 26.8594C559.297 26.6719 559.977 26.5312 560.68 26.4375C561.383 26.2969 562.016 26.2266 562.578 26.2266C563.188 26.1797 563.539 26.1797 563.633 26.2266C563.68 26.2734 563.562 26.7656 563.281 27.7031C563 28.6406 562.648 29.7422 562.227 31.0078C561.805 32.2734 561.359 33.5859 560.891 34.9453C560.422 36.2578 560.07 37.3359 559.836 38.1797C559.602 39.0234 559.32 39.9844 558.992 41.0625C558.664 42.0938 558.359 43.125 558.078 44.1562C557.844 45.1406 557.68 46.0781 557.586 46.9688C557.492 47.8594 557.562 48.5391 557.797 49.0078C558.031 49.5703 558.289 49.9688 558.57 50.2031C558.852 50.3906 559.156 50.4844 559.484 50.4844C560.422 50.4844 561.594 49.9688 563 48.9375C564.453 47.9062 565.906 46.6875 567.359 45.2812C568.859 43.8281 570.242 42.375 571.508 40.9219C572.773 39.4219 573.711 38.2266 574.32 37.3359C574.695 36.8672 575.07 36.5625 575.445 36.4219C575.867 36.2812 576.195 36.3047 576.43 36.4922C576.711 36.6797 576.852 36.9844 576.852 37.4062C576.898 37.8281 576.758 38.3203 576.43 38.8828C575.68 40.1953 574.578 41.7656 573.125 43.5938C571.672 45.375 570.125 47.1094 568.484 48.7969C566.844 50.4375 565.227 51.8438 563.633 53.0156C562.086 54.1875 560.82 54.7969 559.836 54.8438C559.039 54.8906 558.242 54.75 557.445 54.4219C556.695 54.1406 555.992 53.7422 555.336 53.2266C554.727 52.6641 554.211 52.0312 553.789 51.3281C553.367 50.5781 553.133 49.8047 553.086 49.0078C552.945 47.8359 552.945 46.2422 553.086 44.2266C553.227 42.1641 553.484 40.0781 553.859 37.9688C554.234 35.8125 554.703 33.7734 555.266 31.8516C555.875 29.9297 556.555 28.5 557.305 27.5625Z" fill="url(#paint16_linear)"/>
<path d="M581.211 51.6094C581.492 51.7969 581.844 51.8906 582.266 51.8906C582.734 51.8906 583.18 51.7969 583.602 51.6094C584.07 51.4219 584.492 51.1641 584.867 50.8359C585.289 50.5078 585.594 50.0859 585.781 49.5703C585.969 49.0547 585.969 48.3281 585.781 47.3906C585.594 46.4062 585.289 45.375 584.867 44.2969C584.492 43.1719 584.07 42.0469 583.602 40.9219C583.133 39.7969 582.734 38.7656 582.406 37.8281C582.125 37.125 581.891 36.4688 581.703 35.8594C581.516 35.3438 581.328 34.8516 581.141 34.3828C581 33.8672 580.883 33.5156 580.789 33.3281C580.555 33.7031 580.133 34.3125 579.523 35.1562C578.961 36 578.328 36.8906 577.625 37.8281C576.969 38.7188 576.336 39.5625 575.727 40.3594C575.117 41.1094 574.695 41.625 574.461 41.9062C574.086 42.3281 573.711 42.5859 573.336 42.6797C573.008 42.7266 572.727 42.6562 572.492 42.4688C572.258 42.2344 572.117 41.9297 572.07 41.5547C572.07 41.1328 572.258 40.6406 572.633 40.0781C572.914 39.7031 573.336 39.1172 573.898 38.3203C574.461 37.4766 575.023 36.6328 575.586 35.7891C576.148 34.8984 576.664 34.125 577.133 33.4688C577.602 32.7656 577.859 32.3438 577.906 32.2031C578 31.8281 577.859 31.3359 577.484 30.7266C577.156 30.1172 577.109 29.4141 577.344 28.6172C577.531 27.9609 577.953 27.2109 578.609 26.3672C579.266 25.4766 580.039 24.6797 580.93 23.9766C581.82 23.2734 582.734 22.7578 583.672 22.4297C584.609 22.0547 585.453 22.0547 586.203 22.4297C586.812 22.8047 587.305 23.2266 587.68 23.6953C588.055 24.1172 588.195 24.5625 588.102 25.0312C588.008 25.2656 587.867 25.5703 587.68 25.9453C587.492 26.3203 587.211 26.7891 586.836 27.3516C586.461 27.8672 585.922 28.5469 585.219 29.3906C585.359 30.4688 585.547 31.4531 585.781 32.3438C586.062 33.2344 586.32 34.0078 586.555 34.6641C586.836 35.4609 587.141 36.1875 587.469 36.8438C587.891 37.6875 588.336 38.5547 588.805 39.4453C589.273 40.3359 589.695 41.2266 590.07 42.1172C590.445 42.9609 590.75 43.7578 590.984 44.5078C591.219 45.2578 591.289 45.8906 591.195 46.4062C591.055 47.2031 590.633 48.1641 589.93 49.2891C589.273 50.4141 588.43 51.5156 587.398 52.5938C586.414 53.625 585.266 54.5156 583.953 55.2656C582.688 56.0156 581.352 56.3906 579.945 56.3906C578.961 56.3906 578 56.0859 577.062 55.4766C576.172 54.8672 575.398 54.1641 574.742 53.3672C574.133 52.5234 573.664 51.7031 573.336 50.9062C573.055 50.1094 573.031 49.5 573.266 49.0781C573.547 48.5156 573.805 48.0703 574.039 47.7422C574.273 47.4141 574.625 47.0391 575.094 46.6172C575.281 46.4766 575.516 46.3125 575.797 46.125C576.031 45.9844 576.359 45.8438 576.781 45.7031C577.203 45.5625 577.695 45.3984 578.258 45.2109C578.727 46.6641 579.148 47.8125 579.523 48.6562C579.898 49.4531 580.203 50.0859 580.438 50.5547C580.719 51.0703 580.977 51.4219 581.211 51.6094Z" fill="url(#paint17_linear)"/>
<path d="M617.07 63.0703C616.648 62.7891 616.438 62.4844 616.438 62.1562C616.391 61.8281 616.461 61.5 616.648 61.1719C616.836 60.7969 617.117 60.4219 617.492 60.0469C617.867 59.7188 618.312 58.875 618.828 57.5156C619.344 56.2031 619.883 54.6094 620.445 52.7344C621.055 50.8125 621.641 48.7266 622.203 46.4766C622.812 44.2266 623.375 42.0234 623.891 39.8672C624.406 37.7109 624.852 35.7188 625.227 33.8906C625.602 32.0625 625.883 30.6094 626.07 29.5312C626.305 28.2188 626.562 26.7891 626.844 25.2422C627.078 23.8828 627.336 22.3125 627.617 20.5312C627.898 18.7031 628.156 16.6875 628.391 14.4844L634.016 11.9531C634.812 11.5781 635.375 11.6719 635.703 12.2344C636.031 12.75 636.031 13.8516 635.703 15.5391C635.562 16.3828 635.305 17.7656 634.93 19.6875C634.555 21.5625 634.109 23.6484 633.594 25.9453C633.125 28.1953 632.609 30.5156 632.047 32.9062C631.531 35.25 631.016 37.3359 630.5 39.1641C630.031 40.8984 629.492 42.8906 628.883 45.1406C627.805 48.9844 626.305 54.2344 624.383 60.8906C625.039 62.0156 626.258 62.5781 628.039 62.5781C630.008 62.5781 632.281 61.8281 634.859 60.3281C637.484 58.8281 640.016 56.5781 642.453 53.5781C644.891 50.5781 647.023 46.8281 648.852 42.3281C650.727 37.7812 651.898 32.4844 652.367 26.4375C652.602 23.1562 652.438 20.2734 651.875 17.7891C651.312 15.3047 650.445 13.2188 649.273 11.5312C648.148 9.84375 646.742 8.57812 645.055 7.73438C643.414 6.89062 641.586 6.46875 639.57 6.46875C634.836 6.46875 629.938 8.4375 624.875 12.375L624.523 6.53906C625.742 5.17969 627.125 4.14844 628.672 3.44531C630.266 2.69531 631.742 2.13281 633.102 1.75781C634.695 1.33594 636.312 1.10156 637.953 1.05469C640.953 1.05469 643.836 1.64062 646.602 2.8125C649.414 3.9375 651.828 5.67188 653.844 8.01562C655.906 10.3594 657.477 13.3125 658.555 16.875C659.633 20.3906 660.008 24.5156 659.68 29.25C659.492 31.9688 658.93 34.8047 657.992 37.7578C657.102 40.6641 655.906 43.5234 654.406 46.3359C652.953 49.1484 651.219 51.8203 649.203 54.3516C647.188 56.8828 644.984 59.0859 642.594 60.9609C640.203 62.8828 637.648 64.3828 634.93 65.4609C632.211 66.5859 629.398 67.1484 626.492 67.1484C625.602 67.1016 624.641 66.9375 623.609 66.6562C622.719 66.4219 621.711 66.0234 620.586 65.4609C619.461 64.8984 618.289 64.1016 617.07 63.0703Z" fill="url(#paint18_linear)"/>
<path d="M694.203 39.375C692.797 41.4375 691.203 43.4531 689.422 45.4219C687.641 47.3438 685.742 49.0781 683.727 50.625C681.758 52.125 679.719 53.3438 677.609 54.2812C675.547 55.2188 673.531 55.6875 671.562 55.6875C670.531 55.6875 669.406 55.4297 668.188 54.9141C667.016 54.4453 665.938 53.6953 664.953 52.6641C663.969 51.6328 663.172 50.2969 662.562 48.6562C662 47.0156 661.836 45.0234 662.07 42.6797C662.258 40.7578 662.844 38.7422 663.828 36.6328C664.859 34.4766 666.102 32.5078 667.555 30.7266C669.055 28.9453 670.719 27.4688 672.547 26.2969C674.422 25.125 676.297 24.5391 678.172 24.5391C679.953 24.5391 681.242 24.9844 682.039 25.875C682.836 26.7656 683.188 27.8672 683.094 29.1797C682.953 30.6328 682.531 31.9688 681.828 33.1875C681.172 34.4062 680.375 35.5078 679.438 36.4922C678.5 37.4766 677.492 38.3672 676.414 39.1641C675.383 39.9609 674.398 40.6875 673.461 41.3438C672.43 42.0469 671.445 42.7266 670.508 43.3828C669.57 43.9922 668.75 44.5547 668.047 45.0703C668.094 46.2422 668.305 47.2266 668.68 48.0234C669.055 48.8203 669.523 49.4766 670.086 49.9922C670.648 50.4609 671.281 50.8125 671.984 51.0469C672.734 51.2344 673.484 51.3281 674.234 51.3281C675.828 51.3281 677.492 50.8359 679.227 49.8516C680.961 48.8203 682.648 47.6016 684.289 46.1953C685.977 44.7422 687.523 43.2422 688.93 41.6953C690.383 40.1484 691.578 38.8125 692.516 37.6875C692.844 37.3125 693.172 37.1016 693.5 37.0547C693.875 36.9609 694.156 37.0078 694.344 37.1953C694.578 37.3359 694.695 37.6172 694.695 38.0391C694.695 38.4141 694.531 38.8594 694.203 39.375ZM676.203 28.5469C675.641 28.5469 674.961 28.8281 674.164 29.3906C673.414 29.9531 672.664 30.7734 671.914 31.8516C671.164 32.8828 670.461 34.1719 669.805 35.7188C669.148 37.2188 668.656 38.9531 668.328 40.9219C668.891 40.5 669.5 40.0781 670.156 39.6562C670.812 39.1875 671.469 38.6953 672.125 38.1797C674.141 36.6328 675.547 35.2734 676.344 34.1016C677.141 32.9297 677.586 31.9219 677.68 31.0781C677.773 30.1875 677.68 29.5547 677.398 29.1797C677.117 28.7578 676.719 28.5469 676.203 28.5469Z" fill="url(#paint19_linear)"/>
<path d="M699.055 51.6094C699.336 51.7969 699.688 51.8906 700.109 51.8906C700.578 51.8906 701.023 51.7969 701.445 51.6094C701.914 51.4219 702.336 51.1641 702.711 50.8359C703.133 50.5078 703.438 50.0859 703.625 49.5703C703.812 49.0547 703.812 48.3281 703.625 47.3906C703.438 46.4062 703.133 45.375 702.711 44.2969C702.336 43.1719 701.914 42.0469 701.445 40.9219C700.977 39.7969 700.578 38.7656 700.25 37.8281C699.969 37.125 699.734 36.4688 699.547 35.8594C699.359 35.3438 699.172 34.8516 698.984 34.3828C698.844 33.8672 698.727 33.5156 698.633 33.3281C698.398 33.7031 697.977 34.3125 697.367 35.1562C696.805 36 696.172 36.8906 695.469 37.8281C694.812 38.7188 694.18 39.5625 693.57 40.3594C692.961 41.1094 692.539 41.625 692.305 41.9062C691.93 42.3281 691.555 42.5859 691.18 42.6797C690.852 42.7266 690.57 42.6562 690.336 42.4688C690.102 42.2344 689.961 41.9297 689.914 41.5547C689.914 41.1328 690.102 40.6406 690.477 40.0781C690.758 39.7031 691.18 39.1172 691.742 38.3203C692.305 37.4766 692.867 36.6328 693.43 35.7891C693.992 34.8984 694.508 34.125 694.977 33.4688C695.445 32.7656 695.703 32.3438 695.75 32.2031C695.844 31.8281 695.703 31.3359 695.328 30.7266C695 30.1172 694.953 29.4141 695.188 28.6172C695.375 27.9609 695.797 27.2109 696.453 26.3672C697.109 25.4766 697.883 24.6797 698.773 23.9766C699.664 23.2734 700.578 22.7578 701.516 22.4297C702.453 22.0547 703.297 22.0547 704.047 22.4297C704.656 22.8047 705.148 23.2266 705.523 23.6953C705.898 24.1172 706.039 24.5625 705.945 25.0312C705.852 25.2656 705.711 25.5703 705.523 25.9453C705.336 26.3203 705.055 26.7891 704.68 27.3516C704.305 27.8672 703.766 28.5469 703.062 29.3906C703.203 30.4688 703.391 31.4531 703.625 32.3438C703.906 33.2344 704.164 34.0078 704.398 34.6641C704.68 35.4609 704.984 36.1875 705.312 36.8438C705.734 37.6875 706.18 38.5547 706.648 39.4453C707.117 40.3359 707.539 41.2266 707.914 42.1172C708.289 42.9609 708.594 43.7578 708.828 44.5078C709.062 45.2578 709.133 45.8906 709.039 46.4062C708.898 47.2031 708.477 48.1641 707.773 49.2891C707.117 50.4141 706.273 51.5156 705.242 52.5938C704.258 53.625 703.109 54.5156 701.797 55.2656C700.531 56.0156 699.195 56.3906 697.789 56.3906C696.805 56.3906 695.844 56.0859 694.906 55.4766C694.016 54.8672 693.242 54.1641 692.586 53.3672C691.977 52.5234 691.508 51.7031 691.18 50.9062C690.898 50.1094 690.875 49.5 691.109 49.0781C691.391 48.5156 691.648 48.0703 691.883 47.7422C692.117 47.4141 692.469 47.0391 692.938 46.6172C693.125 46.4766 693.359 46.3125 693.641 46.125C693.875 45.9844 694.203 45.8438 694.625 45.7031C695.047 45.5625 695.539 45.3984 696.102 45.2109C696.57 46.6641 696.992 47.8125 697.367 48.6562C697.742 49.4531 698.047 50.0859 698.281 50.5547C698.562 51.0703 698.82 51.4219 699.055 51.6094Z" fill="url(#paint20_linear)"/>
<path d="M729.922 12.5859C729.781 13.1016 729.5 13.6172 729.078 14.1328C728.703 14.6016 728.258 15 727.742 15.3281C727.273 15.6094 726.781 15.7969 726.266 15.8906C725.75 15.9844 725.328 15.8906 725 15.6094C724.016 14.8594 723.5 14.0625 723.453 13.2188C723.406 12.3281 723.617 11.5078 724.086 10.7578C724.555 9.96094 725.141 9.30469 725.844 8.78906C726.547 8.22656 727.156 7.89844 727.672 7.80469C728.188 7.71094 728.609 7.82812 728.938 8.15625C729.312 8.4375 729.594 8.83594 729.781 9.35156C729.969 9.82031 730.062 10.3594 730.062 10.9688C730.109 11.5781 730.062 12.1172 729.922 12.5859ZM720.219 27.5625C720.453 27.2812 720.898 27.0469 721.555 26.8594C722.211 26.6719 722.891 26.5312 723.594 26.4375C724.297 26.2969 724.93 26.2266 725.492 26.2266C726.102 26.1797 726.453 26.1797 726.547 26.2266C726.594 26.2734 726.477 26.7656 726.195 27.7031C725.914 28.6406 725.562 29.7422 725.141 31.0078C724.719 32.2734 724.273 33.5859 723.805 34.9453C723.336 36.2578 722.984 37.3359 722.75 38.1797C722.516 39.0234 722.234 39.9844 721.906 41.0625C721.578 42.0938 721.273 43.125 720.992 44.1562C720.758 45.1406 720.594 46.0781 720.5 46.9688C720.406 47.8594 720.477 48.5391 720.711 49.0078C720.945 49.5703 721.203 49.9688 721.484 50.2031C721.766 50.3906 722.07 50.4844 722.398 50.4844C723.336 50.4844 724.508 49.9688 725.914 48.9375C727.367 47.9062 728.82 46.6875 730.273 45.2812C731.773 43.8281 733.156 42.375 734.422 40.9219C735.688 39.4219 736.625 38.2266 737.234 37.3359C737.609 36.8672 737.984 36.5625 738.359 36.4219C738.781 36.2812 739.109 36.3047 739.344 36.4922C739.625 36.6797 739.766 36.9844 739.766 37.4062C739.812 37.8281 739.672 38.3203 739.344 38.8828C738.594 40.1953 737.492 41.7656 736.039 43.5938C734.586 45.375 733.039 47.1094 731.398 48.7969C729.758 50.4375 728.141 51.8438 726.547 53.0156C725 54.1875 723.734 54.7969 722.75 54.8438C721.953 54.8906 721.156 54.75 720.359 54.4219C719.609 54.1406 718.906 53.7422 718.25 53.2266C717.641 52.6641 717.125 52.0312 716.703 51.3281C716.281 50.5781 716.047 49.8047 716 49.0078C715.859 47.8359 715.859 46.2422 716 44.2266C716.141 42.1641 716.398 40.0781 716.773 37.9688C717.148 35.8125 717.617 33.7734 718.18 31.8516C718.789 29.9297 719.469 28.5 720.219 27.5625Z" fill="url(#paint21_linear)"/>
<path d="M752.773 64.0547C752.539 65.1797 752.234 66.5859 751.859 68.2734C751.531 69.9609 751.133 71.7422 750.664 73.6172C750.242 75.4922 749.727 77.3438 749.117 79.1719C748.555 81.0469 747.922 82.7109 747.219 84.1641C746.516 85.6641 745.742 86.8828 744.898 87.8203C744.055 88.7578 743.117 89.2266 742.086 89.2266C740.539 89.2266 739.203 88.7578 738.078 87.8203C737 86.9297 736.086 85.7812 735.336 84.375C734.586 83.0156 734.047 81.5391 733.719 79.9453C733.344 78.3516 733.156 76.875 733.156 75.5156C733.156 73.6406 733.32 72.0703 733.648 70.8047C733.977 69.5859 734.539 68.4141 735.336 67.2891C736.18 66.1641 737.305 64.9688 738.711 63.7031C740.117 62.4375 741.922 60.8672 744.125 58.9922C745.203 58.0547 746.234 57.1641 747.219 56.3203C748.203 55.4766 749.141 54.7031 750.031 54C750.266 53.0625 750.477 52.1953 750.664 51.3984C750.898 50.5547 751.086 49.8047 751.227 49.1484C750.008 50.7891 748.531 52.1719 746.797 53.2969C745.109 54.4219 743.164 54.9844 740.961 54.9844C738.945 54.9844 737.305 54.0938 736.039 52.3125C734.82 50.4844 734.211 47.8125 734.211 44.2969C734.211 42.5625 734.539 40.5703 735.195 38.3203C735.852 36.0703 736.789 33.9609 738.008 31.9922C739.227 30.0234 740.727 28.3594 742.508 27C744.289 25.6406 746.281 24.9609 748.484 24.9609C749.516 24.9609 750.406 25.2188 751.156 25.7344C751.906 26.25 752.539 26.9062 753.055 27.7031C753.57 28.4531 753.969 29.2734 754.25 30.1641C754.531 31.0078 754.742 31.8047 754.883 32.5547C754.977 32.2734 755.047 31.9922 755.094 31.7109C755.141 31.3828 755.211 31.1016 755.305 30.8672C755.773 29.2734 756.289 28.1953 756.852 27.6328C757.461 27.0234 758.352 26.7188 759.523 26.7188C760.18 26.7188 760.719 26.8359 761.141 27.0703C761.609 27.3047 761.844 27.5156 761.844 27.7031C761.609 28.2188 761.422 28.6172 761.281 28.8984C761.141 29.1797 761 29.4844 760.859 29.8125C760.719 30.0938 760.578 30.4688 760.438 30.9375C760.297 31.4062 760.109 32.0859 759.875 32.9766C759.781 33.3047 759.594 34.0781 759.312 35.2969C759.078 36.4688 758.75 37.875 758.328 39.5156C757.953 41.1562 757.531 42.9609 757.062 44.9297C756.641 46.8984 756.219 48.8203 755.797 50.6953C757.109 49.9453 758.469 49.0312 759.875 47.9531C761.281 46.875 762.617 45.7734 763.883 44.6484C765.148 43.5234 766.273 42.4688 767.258 41.4844C768.242 40.4531 768.969 39.6094 769.438 38.9531C769.812 38.3906 770.234 37.9922 770.703 37.7578C771.172 37.5234 771.57 37.4531 771.898 37.5469C772.273 37.5938 772.484 37.8047 772.531 38.1797C772.625 38.5078 772.484 38.9766 772.109 39.5859C771.031 41.3203 769.719 43.0078 768.172 44.6484C766.625 46.2422 765.031 47.7422 763.391 49.1484C761.797 50.5078 760.227 51.7266 758.68 52.8047C757.18 53.8359 755.891 54.6797 754.812 55.3359C754.344 57.4453 753.945 59.1562 753.617 60.4688C753.289 61.7812 753.008 62.9766 752.773 64.0547ZM743.914 50.2031C744.898 50.2031 745.812 49.9453 746.656 49.4297C747.547 48.9141 748.344 48.3281 749.047 47.6719C749.75 46.9688 750.336 46.2656 750.805 45.5625C751.273 44.8594 751.625 44.2969 751.859 43.875C752.047 43.4531 752.258 42.8906 752.492 42.1875C752.773 41.4844 752.984 40.8047 753.125 40.1484C753.266 39.4922 753.312 38.9062 753.266 38.3906C753.266 37.875 753.102 37.5938 752.773 37.5469C752.492 37.5 752.258 37.3125 752.07 36.9844C751.93 36.6562 751.812 36.2812 751.719 35.8594C751.625 35.4375 751.555 35.0156 751.508 34.5938C751.508 34.1719 751.484 33.7969 751.438 33.4688C751.203 31.8281 750.805 30.6328 750.242 29.8828C749.68 29.1328 749.047 28.7578 748.344 28.7578C747.172 28.7578 746.047 29.2266 744.969 30.1641C743.938 31.1016 743 32.3203 742.156 33.8203C741.359 35.2734 740.727 36.8906 740.258 38.6719C739.789 40.4062 739.555 42.0703 739.555 43.6641C739.555 45.6328 739.836 47.2266 740.398 48.4453C740.961 49.6172 742.133 50.2031 743.914 50.2031ZM740.68 82.8281C741.617 82.8281 742.367 82.125 742.93 80.7188C743.539 79.3594 744.172 77.4844 744.828 75.0938C744.969 74.5312 745.156 73.7109 745.391 72.6328C745.672 71.6016 745.977 70.4062 746.305 69.0469C746.68 67.6875 747.055 66.2109 747.43 64.6172C747.805 63.0703 748.203 61.5 748.625 59.9062C748.25 60.2344 747.852 60.5625 747.43 60.8906C747.055 61.2656 746.656 61.6875 746.234 62.1562C745.203 63.1406 744.195 64.0781 743.211 64.9688C742.273 65.9062 741.43 66.8672 740.68 67.8516C739.93 68.8828 739.32 69.9844 738.852 71.1562C738.43 72.3281 738.219 73.6875 738.219 75.2344C738.219 76.7812 738.266 78.0469 738.359 79.0312C738.5 80.0156 738.664 80.7891 738.852 81.3516C739.086 81.9141 739.344 82.2891 739.625 82.4766C739.953 82.7109 740.305 82.8281 740.68 82.8281Z" fill="url(#paint22_linear)"/>
<path d="M788.211 55.7578C787.133 55.7578 786.195 55.5469 785.398 55.125C784.648 54.75 784.039 54.2344 783.57 53.5781C783.102 52.9219 782.797 52.1719 782.656 51.3281C782.516 50.4375 782.562 49.5 782.797 48.5156C782.938 47.8594 783.172 46.9922 783.5 45.9141C783.828 44.7891 784.156 43.5938 784.484 42.3281C784.859 41.0156 785.188 39.7266 785.469 38.4609C785.797 37.1484 786.008 35.9766 786.102 34.9453C786.195 33.8672 786.148 33 785.961 32.3438C785.773 31.6406 785.375 31.2891 784.766 31.2891C784.016 31.2891 783.242 31.5469 782.445 32.0625C781.648 32.5312 780.828 33.1875 779.984 34.0312C779.188 34.875 778.367 35.8594 777.523 36.9844C776.727 38.0625 775.93 39.1875 775.133 40.3594C774.711 41.9531 774.359 43.3594 774.078 44.5781C773.797 45.75 773.539 46.8281 773.305 47.8125C773.117 48.75 772.93 49.5938 772.742 50.3438C772.555 51.0469 772.391 51.7266 772.25 52.3828C772.109 52.8516 771.688 53.3203 770.984 53.7891C770.281 54.2109 769.531 54.5625 768.734 54.8438C767.938 55.125 767.258 55.2656 766.695 55.2656C766.086 55.2656 765.828 55.0547 765.922 54.6328C765.969 54.3516 766.133 53.7188 766.414 52.7344C766.648 51.75 766.953 50.6016 767.328 49.2891C767.656 47.9297 768.008 46.5 768.383 45C768.758 43.5 769.109 42.0703 769.438 40.7109C769.672 39.6328 769.93 38.4375 770.211 37.125C770.445 36 770.727 34.6875 771.055 33.1875C771.43 31.6875 771.852 30.0469 772.32 28.2656C772.648 27.9844 772.977 27.7734 773.305 27.6328C773.68 27.4453 774.055 27.3047 774.43 27.2109C774.805 27.0703 775.203 26.9766 775.625 26.9297C776 26.9297 776.375 26.9531 776.75 27C777.078 27.0469 777.406 27.1406 777.734 27.2812C778.109 27.375 778.438 27.5391 778.719 27.7734C778.578 28.1016 778.414 28.5703 778.227 29.1797C778.039 29.7422 777.852 30.3516 777.664 31.0078C777.477 31.7578 777.242 32.5312 776.961 33.3281C777.57 32.4844 778.25 31.6406 779 30.7969C779.797 29.9062 780.641 29.1094 781.531 28.4062C782.469 27.7031 783.453 27.1406 784.484 26.7188C785.516 26.25 786.57 26.0156 787.648 26.0156C788.539 26.0156 789.336 26.2734 790.039 26.7891C790.742 27.3047 791.281 28.0312 791.656 28.9688C792.078 29.8594 792.312 30.9375 792.359 32.2031C792.453 33.4688 792.289 34.8516 791.867 36.3516L791.094 39.4453C790.859 40.4297 790.555 41.6016 790.18 42.9609C789.852 44.2734 789.43 45.7266 788.914 47.3203C788.633 48.3516 788.516 49.2422 788.562 49.9922C788.656 50.7422 789.125 51.1172 789.969 51.1172C790.812 51.1172 791.867 50.6016 793.133 49.5703C794.445 48.5391 795.758 47.2969 797.07 45.8438C798.383 44.3906 799.625 42.9141 800.797 41.4141C801.969 39.8672 802.859 38.625 803.469 37.6875C803.891 37.0781 804.289 36.6797 804.664 36.4922C805.039 36.3047 805.32 36.2812 805.508 36.4219C805.742 36.5625 805.859 36.8906 805.859 37.4062C805.859 37.875 805.672 38.4844 805.297 39.2344C804.969 39.8906 804.453 40.7578 803.75 41.8359C803.094 42.9141 802.297 44.0625 801.359 45.2812C800.422 46.5 799.414 47.7422 798.336 49.0078C797.258 50.2266 796.133 51.3516 794.961 52.3828C793.789 53.3672 792.617 54.1641 791.445 54.7734C790.32 55.4297 789.242 55.7578 788.211 55.7578Z" fill="url(#paint23_linear)"/>
<path d="M821.328 0.703125C822.5 0.703125 823.859 0.867188 825.406 1.19531C826.953 1.52344 828.383 2.10938 829.695 2.95312C831.055 3.79688 832.156 4.94531 833 6.39844C833.844 7.80469 834.125 9.58594 833.844 11.7422C833.375 15.2109 832.273 18.1875 830.539 20.6719C828.852 23.1562 826.906 25.2422 824.703 26.9297C822.547 28.5703 820.344 29.8359 818.094 30.7266C815.891 31.5703 814.086 32.1094 812.68 32.3438L810.922 39.5859C810.734 40.3828 810.453 41.1797 810.078 41.9766C809.703 42.7266 809.188 43.3828 808.531 43.9453C807.922 44.5078 807.148 44.9531 806.211 45.2812C805.32 45.6094 804.266 45.7266 803.047 45.6328L806.633 31.4297C806.82 30.6797 807.195 30.0469 807.758 29.5312C808.367 29.0156 809.492 28.5703 811.133 28.1953C813.195 27.8203 815.258 27.1875 817.32 26.2969C819.43 25.4062 821.328 23.9766 823.016 22.0078C823.484 21.4922 823.953 20.8594 824.422 20.1094C824.938 19.3125 825.43 18.4688 825.898 17.5781C826.367 16.6406 826.766 15.6797 827.094 14.6953C827.422 13.7109 827.656 12.7266 827.797 11.7422C827.938 10.8516 827.914 9.98438 827.727 9.14062C827.539 8.29688 827.164 7.57031 826.602 6.96094C826.039 6.35156 825.242 5.85938 824.211 5.48438C823.227 5.10938 821.961 4.92188 820.414 4.92188C819.195 4.92188 818.047 5.10938 816.969 5.48438C815.891 5.85938 814.953 6.375 814.156 7.03125C813.359 7.64062 812.703 8.34375 812.188 9.14062C811.672 9.9375 811.367 10.7578 811.273 11.6016C811.227 12.1172 811.227 12.6094 811.273 13.0781C811.32 13.5 811.414 13.9219 811.555 14.3438C811.695 14.7656 811.953 15.1406 812.328 15.4688C810.172 16.0312 808.578 16.125 807.547 15.75C806.516 15.3281 805.789 14.7422 805.367 13.9922C804.852 13.1484 804.641 12.0703 804.734 10.7578C804.969 8.97656 805.742 7.45312 807.055 6.1875C808.367 4.92188 809.867 3.89062 811.555 3.09375C813.289 2.25 815.047 1.64062 816.828 1.26562C818.609 0.890625 820.109 0.703125 821.328 0.703125ZM805.578 48.8672C806.797 48.8672 807.828 49.125 808.672 49.6406C809.516 50.1562 809.891 50.8828 809.797 51.8203C809.703 52.3359 809.492 52.8516 809.164 53.3672C808.836 53.8359 808.391 54.2812 807.828 54.7031C807.312 55.125 806.703 55.4531 806 55.6875C805.297 55.9688 804.57 56.1094 803.82 56.1094C802.555 56.1094 801.5 55.8281 800.656 55.2656C799.812 54.75 799.438 54.0469 799.531 53.1562C799.672 52.125 800.211 51.1641 801.148 50.2734C802.133 49.3359 803.609 48.8672 805.578 48.8672Z" fill="url(#paint24_linear)"/>
</g>
<defs>
<filter id="filter0_d" x="0.325012" y="0.703125" width="837.624" height="96.5234" filterUnits="userSpaceOnUse" color-interpolation-filters="sRGB">
<feFlood flood-opacity="0" result="BackgroundImageFix"/>
<feColorMatrix in="SourceAlpha" type="matrix" values="0 0 0 0 0 0 0 0 0 0 0 0 0 0 0 0 0 0 127 0"/>
<feOffset dy="4"/>
<feGaussianBlur stdDeviation="2"/>
<feColorMatrix type="matrix" values="0 0 0 0 0 0 0 0 0 0 0 0 0 0 0 0 0 0 0.25 0"/>
<feBlend mode="normal" in2="BackgroundImageFix" result="effect1_dropShadow"/>
<feBlend mode="normal" in="SourceGraphic" in2="effect1_dropShadow" result="shape"/>
</filter>
<linearGradient id="paint0_linear" x1="4.32501" y1="44.9648" x2="833.949" y2="44.9648" gradientUnits="userSpaceOnUse">
<stop stop-color="#F15252"/>
<stop offset="0.229167" stop-color="#FADC3D"/>
<stop offset="0.5" stop-color="#35EA9E"/>
<stop offset="0.770833" stop-color="#3D9DF5"/>
<stop offset="1" stop-color="#CE85F0"/>
</linearGradient>
<linearGradient id="paint1_linear" x1="4.32501" y1="44.9648" x2="833.949" y2="44.9648" gradientUnits="userSpaceOnUse">
<stop stop-color="#F15252"/>
<stop offset="0.229167" stop-color="#FADC3D"/>
<stop offset="0.5" stop-color="#35EA9E"/>
<stop offset="0.770833" stop-color="#3D9DF5"/>
<stop offset="1" stop-color="#CE85F0"/>
</linearGradient>
<linearGradient id="paint2_linear" x1="4.32501" y1="44.9648" x2="833.949" y2="44.9648" gradientUnits="userSpaceOnUse">
<stop stop-color="#F15252"/>
<stop offset="0.229167" stop-color="#FADC3D"/>
<stop offset="0.5" stop-color="#35EA9E"/>
<stop offset="0.770833" stop-color="#3D9DF5"/>
<stop offset="1" stop-color="#CE85F0"/>
</linearGradient>
<linearGradient id="paint3_linear" x1="4.32501" y1="44.9648" x2="833.949" y2="44.9648" gradientUnits="userSpaceOnUse">
<stop stop-color="#F15252"/>
<stop offset="0.229167" stop-color="#FADC3D"/>
<stop offset="0.5" stop-color="#35EA9E"/>
<stop offset="0.770833" stop-color="#3D9DF5"/>
<stop offset="1" stop-color="#CE85F0"/>
</linearGradient>
<linearGradient id="paint4_linear" x1="4.32501" y1="44.9648" x2="833.949" y2="44.9648" gradientUnits="userSpaceOnUse">
<stop stop-color="#F15252"/>
<stop offset="0.229167" stop-color="#FADC3D"/>
<stop offset="0.5" stop-color="#35EA9E"/>
<stop offset="0.770833" stop-color="#3D9DF5"/>
<stop offset="1" stop-color="#CE85F0"/>
</linearGradient>
<linearGradient id="paint5_linear" x1="4.32501" y1="44.9648" x2="833.949" y2="44.9648" gradientUnits="userSpaceOnUse">
<stop stop-color="#F15252"/>
<stop offset="0.229167" stop-color="#FADC3D"/>
<stop offset="0.5" stop-color="#35EA9E"/>
<stop offset="0.770833" stop-color="#3D9DF5"/>
<stop offset="1" stop-color="#CE85F0"/>
</linearGradient>
<linearGradient id="paint6_linear" x1="4.32501" y1="44.9648" x2="833.949" y2="44.9648" gradientUnits="userSpaceOnUse">
<stop stop-color="#F15252"/>
<stop offset="0.229167" stop-color="#FADC3D"/>
<stop offset="0.5" stop-color="#35EA9E"/>
<stop offset="0.770833" stop-color="#3D9DF5"/>
<stop offset="1" stop-color="#CE85F0"/>
</linearGradient>
<linearGradient id="paint7_linear" x1="4.32501" y1="44.9648" x2="833.949" y2="44.9648" gradientUnits="userSpaceOnUse">
<stop stop-color="#F15252"/>
<stop offset="0.229167" stop-color="#FADC3D"/>
<stop offset="0.5" stop-color="#35EA9E"/>
<stop offset="0.770833" stop-color="#3D9DF5"/>
<stop offset="1" stop-color="#CE85F0"/>
</linearGradient>
<linearGradient id="paint8_linear" x1="4.32501" y1="44.9648" x2="833.949" y2="44.9648" gradientUnits="userSpaceOnUse">
<stop stop-color="#F15252"/>
<stop offset="0.229167" stop-color="#FADC3D"/>
<stop offset="0.5" stop-color="#35EA9E"/>
<stop offset="0.770833" stop-color="#3D9DF5"/>
<stop offset="1" stop-color="#CE85F0"/>
</linearGradient>
<linearGradient id="paint9_linear" x1="4.32501" y1="44.9648" x2="833.949" y2="44.9648" gradientUnits="userSpaceOnUse">
<stop stop-color="#F15252"/>
<stop offset="0.229167" stop-color="#FADC3D"/>
<stop offset="0.5" stop-color="#35EA9E"/>
<stop offset="0.770833" stop-color="#3D9DF5"/>
<stop offset="1" stop-color="#CE85F0"/>
</linearGradient>
<linearGradient id="paint10_linear" x1="4.32501" y1="44.9648" x2="833.949" y2="44.9648" gradientUnits="userSpaceOnUse">
<stop stop-color="#F15252"/>
<stop offset="0.229167" stop-color="#FADC3D"/>
<stop offset="0.5" stop-color="#35EA9E"/>
<stop offset="0.770833" stop-color="#3D9DF5"/>
<stop offset="1" stop-color="#CE85F0"/>
</linearGradient>
<linearGradient id="paint11_linear" x1="4.32501" y1="44.9648" x2="833.949" y2="44.9648" gradientUnits="userSpaceOnUse">
<stop stop-color="#F15252"/>
<stop offset="0.229167" stop-color="#FADC3D"/>
<stop offset="0.5" stop-color="#35EA9E"/>
<stop offset="0.770833" stop-color="#3D9DF5"/>
<stop offset="1" stop-color="#CE85F0"/>
</linearGradient>
<linearGradient id="paint12_linear" x1="4.32501" y1="44.9648" x2="833.949" y2="44.9648" gradientUnits="userSpaceOnUse">
<stop stop-color="#F15252"/>
<stop offset="0.229167" stop-color="#FADC3D"/>
<stop offset="0.5" stop-color="#35EA9E"/>
<stop offset="0.770833" stop-color="#3D9DF5"/>
<stop offset="1" stop-color="#CE85F0"/>
</linearGradient>
<linearGradient id="paint13_linear" x1="4.32501" y1="44.9648" x2="833.949" y2="44.9648" gradientUnits="userSpaceOnUse">
<stop stop-color="#F15252"/>
<stop offset="0.229167" stop-color="#FADC3D"/>
<stop offset="0.5" stop-color="#35EA9E"/>
<stop offset="0.770833" stop-color="#3D9DF5"/>
<stop offset="1" stop-color="#CE85F0"/>
</linearGradient>
<linearGradient id="paint14_linear" x1="4.32501" y1="44.9648" x2="833.949" y2="44.9648" gradientUnits="userSpaceOnUse">
<stop stop-color="#F15252"/>
<stop offset="0.229167" stop-color="#FADC3D"/>
<stop offset="0.5" stop-color="#35EA9E"/>
<stop offset="0.770833" stop-color="#3D9DF5"/>
<stop offset="1" stop-color="#CE85F0"/>
</linearGradient>
<linearGradient id="paint15_linear" x1="4.32501" y1="44.9648" x2="833.949" y2="44.9648" gradientUnits="userSpaceOnUse">
<stop stop-color="#F15252"/>
<stop offset="0.229167" stop-color="#FADC3D"/>
<stop offset="0.5" stop-color="#35EA9E"/>
<stop offset="0.770833" stop-color="#3D9DF5"/>
<stop offset="1" stop-color="#CE85F0"/>
</linearGradient>
<linearGradient id="paint16_linear" x1="4.32501" y1="44.9648" x2="833.949" y2="44.9648" gradientUnits="userSpaceOnUse">
<stop stop-color="#F15252"/>
<stop offset="0.229167" stop-color="#FADC3D"/>
<stop offset="0.5" stop-color="#35EA9E"/>
<stop offset="0.770833" stop-color="#3D9DF5"/>
<stop offset="1" stop-color="#CE85F0"/>
</linearGradient>
<linearGradient id="paint17_linear" x1="4.32501" y1="44.9648" x2="833.949" y2="44.9648" gradientUnits="userSpaceOnUse">
<stop stop-color="#F15252"/>
<stop offset="0.229167" stop-color="#FADC3D"/>
<stop offset="0.5" stop-color="#35EA9E"/>
<stop offset="0.770833" stop-color="#3D9DF5"/>
<stop offset="1" stop-color="#CE85F0"/>
</linearGradient>
<linearGradient id="paint18_linear" x1="4.32501" y1="44.9648" x2="833.949" y2="44.9648" gradientUnits="userSpaceOnUse">
<stop stop-color="#F15252"/>
<stop offset="0.229167" stop-color="#FADC3D"/>
<stop offset="0.5" stop-color="#35EA9E"/>
<stop offset="0.770833" stop-color="#3D9DF5"/>
<stop offset="1" stop-color="#CE85F0"/>
</linearGradient>
<linearGradient id="paint19_linear" x1="4.32501" y1="44.9648" x2="833.949" y2="44.9648" gradientUnits="userSpaceOnUse">
<stop stop-color="#F15252"/>
<stop offset="0.229167" stop-color="#FADC3D"/>
<stop offset="0.5" stop-color="#35EA9E"/>
<stop offset="0.770833" stop-color="#3D9DF5"/>
<stop offset="1" stop-color="#CE85F0"/>
</linearGradient>
<linearGradient id="paint20_linear" x1="4.32501" y1="44.9648" x2="833.949" y2="44.9648" gradientUnits="userSpaceOnUse">
<stop stop-color="#F15252"/>
<stop offset="0.229167" stop-color="#FADC3D"/>
<stop offset="0.5" stop-color="#35EA9E"/>
<stop offset="0.770833" stop-color="#3D9DF5"/>
<stop offset="1" stop-color="#CE85F0"/>
</linearGradient>
<linearGradient id="paint21_linear" x1="4.32501" y1="44.9648" x2="833.949" y2="44.9648" gradientUnits="userSpaceOnUse">
<stop stop-color="#F15252"/>
<stop offset="0.229167" stop-color="#FADC3D"/>
<stop offset="0.5" stop-color="#35EA9E"/>
<stop offset="0.770833" stop-color="#3D9DF5"/>
<stop offset="1" stop-color="#CE85F0"/>
</linearGradient>
<linearGradient id="paint22_linear" x1="4.32501" y1="44.9648" x2="833.949" y2="44.9648" gradientUnits="userSpaceOnUse">
<stop stop-color="#F15252"/>
<stop offset="0.229167" stop-color="#FADC3D"/>
<stop offset="0.5" stop-color="#35EA9E"/>
<stop offset="0.770833" stop-color="#3D9DF5"/>
<stop offset="1" stop-color="#CE85F0"/>
</linearGradient>
<linearGradient id="paint23_linear" x1="4.32501" y1="44.9648" x2="833.949" y2="44.9648" gradientUnits="userSpaceOnUse">
<stop stop-color="#F15252"/>
<stop offset="0.229167" stop-color="#FADC3D"/>
<stop offset="0.5" stop-color="#35EA9E"/>
<stop offset="0.770833" stop-color="#3D9DF5"/>
<stop offset="1" stop-color="#CE85F0"/>
</linearGradient>
<linearGradient id="paint24_linear" x1="4.32501" y1="44.9648" x2="833.949" y2="44.9648" gradientUnits="userSpaceOnUse">
<stop stop-color="#F15252"/>
<stop offset="0.229167" stop-color="#FADC3D"/>
<stop offset="0.5" stop-color="#35EA9E"/>
<stop offset="0.770833" stop-color="#3D9DF5"/>
<stop offset="1" stop-color="#CE85F0"/>
</linearGradient>
</defs>
</svg>
